%FSTAX23Y23*%
%MOIN*%
%SFA1B1*%

%IPPOS*%
%AMD14*
4,1,8,0.021300,0.011800,-0.021300,0.011800,-0.024200,0.008900,-0.024200,-0.008900,-0.021300,-0.011800,0.021300,-0.011800,0.024200,-0.008900,0.024200,0.008900,0.021300,0.011800,0.0*
1,1,0.005906,0.021300,0.008900*
1,1,0.005906,-0.021300,0.008900*
1,1,0.005906,-0.021300,-0.008900*
1,1,0.005906,0.021300,-0.008900*
%
%ADD11R,0.053937X0.053937*%
%ADD12C,0.053937*%
%ADD13C,0.019685*%
G04~CAMADD=14~8~0.0~0.0~484.3~236.2~29.5~0.0~15~0.0~0.0~0.0~0.0~0~0.0~0.0~0.0~0.0~0~0.0~0.0~0.0~0.0~484.3~236.2*
%ADD14D14*%
%ADD15R,0.059055X0.049212*%
%LNpcb2_copper_signal_bot-1*%
%LPD*%
G36*
X02097Y02357D02*
Y02177D01*
X02092Y02176*
X02091Y02178*
X02086Y02181*
X02081Y02182*
X02039*
X02034Y02181*
X02033Y0218*
X01923*
Y02204*
X01844*
Y02175*
X01826*
X01818Y02173*
X01812Y02169*
X01732Y02089*
X01687*
Y02015*
X01761*
Y02061*
X01834Y02135*
X01869*
X01871Y02135*
X01923*
Y0214*
X02033*
X02034Y02139*
X02039Y02138*
X02081*
X02086Y02139*
X02091Y02142*
X02092Y02144*
X02097Y02142*
Y01897*
X02092Y01896*
X02091Y01898*
X02086Y01901*
X02081Y01902*
X02049*
X02045Y01903*
X02019*
Y01909*
X02017Y01917*
X02013Y01923*
X02001Y01935*
X01995Y01939*
X01987Y01941*
X01923*
Y01955*
X01844*
Y01941*
X0183*
X01822Y01939*
X01816Y01935*
X01804Y01923*
X018Y01917*
X01798Y01909*
Y01773*
X01755*
X01753Y01775*
X01746Y01782*
X01738Y01787*
X01729Y01789*
X01719*
X01709Y01787*
X01701Y01782*
X01694Y01775*
X01689Y01767*
X01687Y01757*
Y01748*
X01689Y01738*
X01694Y0173*
X01701Y01723*
X01709Y01718*
X01719Y01715*
X01729*
X01738Y01718*
X01746Y01723*
X01753Y0173*
X01755Y01732*
X01807*
X01815Y01734*
X01821Y01738*
X01833Y0175*
X01837Y01756*
X01839Y01764*
Y019*
X01844*
Y01886*
X01923*
Y019*
X01978*
Y01894*
X0198Y01886*
X01984Y0188*
X01996Y01868*
X02002Y01864*
X0201Y01862*
X02029*
X0203Y01862*
X02034Y01859*
X02039Y01858*
X02081*
X02086Y01859*
X02091Y01862*
X02092Y01864*
X02097Y01862*
Y01562*
X02092Y01561*
X02091Y01563*
X02086Y01566*
X02081Y01567*
X02039*
X02034Y01566*
X0203Y01563*
X02029Y01563*
X02009*
Y01641*
X02007Y01649*
X02003Y01655*
X01991Y01667*
X01985Y01671*
X01977Y01673*
X01918*
Y01687*
X01839*
Y01673*
X01755*
X01753Y01675*
X01746Y01682*
X01738Y01687*
X01729Y01689*
X01719*
X01709Y01687*
X01701Y01682*
X01694Y01675*
X01689Y01667*
X01687Y0166*
X01682Y0166*
X01668Y01693*
X01657Y0173*
X01648Y01769*
X01643Y01808*
X01642Y0183*
X01645Y01834*
X01692*
X01694Y0183*
X01701Y01823*
X01709Y01818*
X01719Y01815*
X01729*
X01738Y01818*
X01746Y01823*
X01753Y0183*
X01758Y01838*
X01761Y01848*
Y01857*
X01758Y01867*
X01753Y01875*
X01746Y01882*
X01738Y01887*
X01729Y01889*
X01719*
X01709Y01887*
X01701Y01882*
X01694Y01875*
X01694Y01874*
X01641*
X0164Y01874*
X01631Y01873*
X01621Y01869*
X01613Y01862*
X01607Y01854*
X01603Y01845*
X01601Y01834*
X01601Y01834*
X01601Y01834*
X01601Y01833*
Y01833*
X01602Y01828*
X01603Y01804*
X01608Y01762*
X01618Y0172*
X01631Y01679*
X01647Y01639*
X01667Y01601*
X0169Y01565*
X01716Y01531*
X01745Y01499*
X01777Y0147*
X01811Y01444*
X01847Y01421*
X01885Y01401*
X01925Y01384*
X01966Y01371*
X02008Y01362*
X02051Y01357*
X02094Y01355*
X02094*
X02097Y01351*
Y01341*
X02094Y01337*
X01999Y01341*
X01905Y01375*
X01814Y01423*
X01734Y0149*
X01666Y01571*
X0162Y0166*
X01593Y01755*
X01585Y01849*
X01593Y01939*
X0162Y02033*
X01666Y02122*
X01728Y02204*
X01808Y02269*
X01896Y02318*
X01993Y02349*
X02094Y02361*
X02097Y02357*
G37*
G36*
X0068D02*
Y02177D01*
X00675Y02176*
X00673Y02178*
X00669Y02181*
X00664Y02182*
X00622*
X00617Y02181*
X00615Y0218*
X00506*
Y02204*
X00427*
Y02175*
X00409*
X00401Y02173*
X00394Y02169*
X00315Y02089*
X00269*
Y02015*
X00343*
Y02061*
X00417Y02135*
X00452*
X00454Y02135*
X00506*
Y0214*
X00615*
X00617Y02139*
X00622Y02138*
X00664*
X00669Y02139*
X00673Y02142*
X00675Y02144*
X0068Y02142*
Y01897*
X00675Y01896*
X00673Y01898*
X00669Y01901*
X00664Y01902*
X00632*
X00628Y01903*
X00602*
Y01909*
X006Y01917*
X00596Y01923*
X00584Y01935*
X00578Y01939*
X0057Y01941*
X00506*
Y01955*
X00427*
Y01941*
X00413*
X00405Y01939*
X00399Y01935*
X00387Y01923*
X00383Y01917*
X00381Y01909*
Y01773*
X00337*
X00336Y01775*
X00329Y01782*
X00321Y01787*
X00311Y01789*
X00301*
X00292Y01787*
X00284Y01782*
X00277Y01775*
X00272Y01767*
X00269Y01757*
Y01748*
X00272Y01738*
X00277Y0173*
X00284Y01723*
X00292Y01718*
X00301Y01715*
X00311*
X00321Y01718*
X00329Y01723*
X00336Y0173*
X00337Y01732*
X0039*
X00398Y01734*
X00404Y01738*
X00416Y0175*
X0042Y01756*
X00422Y01764*
Y019*
X00427*
Y01886*
X00506*
Y019*
X00561*
Y01894*
X00563Y01886*
X00567Y0188*
X00579Y01868*
X00585Y01864*
X00593Y01862*
X00612*
X00612Y01862*
X00617Y01859*
X00622Y01858*
X00664*
X00669Y01859*
X00673Y01862*
X00675Y01864*
X0068Y01862*
Y01562*
X00675Y01561*
X00673Y01563*
X00669Y01566*
X00664Y01567*
X00622*
X00617Y01566*
X00612Y01563*
X00612Y01563*
X00592*
Y01641*
X0059Y01649*
X00586Y01655*
X00574Y01667*
X00568Y01671*
X0056Y01673*
X00501*
Y01687*
X00422*
Y01673*
X00337*
X00336Y01675*
X00329Y01682*
X00321Y01687*
X00311Y01689*
X00301*
X00292Y01687*
X00284Y01682*
X00277Y01675*
X00272Y01667*
X0027Y0166*
X00265Y0166*
X00251Y01693*
X00239Y0173*
X00231Y01769*
X00226Y01808*
X00225Y0183*
X00228Y01834*
X00274*
X00277Y0183*
X00284Y01823*
X00292Y01818*
X00301Y01815*
X00311*
X00321Y01818*
X00329Y01823*
X00336Y0183*
X00341Y01838*
X00343Y01848*
Y01857*
X00341Y01867*
X00336Y01875*
X00329Y01882*
X00321Y01887*
X00311Y01889*
X00301*
X00292Y01887*
X00284Y01882*
X00277Y01875*
X00276Y01874*
X00224*
X00223Y01874*
X00213Y01873*
X00204Y01869*
X00196Y01862*
X00189Y01854*
X00185Y01845*
X00184Y01834*
X00184Y01834*
X00184Y01834*
X00184Y01833*
Y01833*
X00184Y01828*
X00185Y01804*
X00191Y01762*
X002Y0172*
X00213Y01679*
X0023Y01639*
X0025Y01601*
X00273Y01565*
X00299Y01531*
X00328Y01499*
X0036Y0147*
X00394Y01444*
X0043Y01421*
X00468Y01401*
X00508Y01384*
X00549Y01371*
X00591Y01362*
X00633Y01357*
X00676Y01355*
X00676*
X0068Y01351*
Y01341*
X00676Y01337*
X00581Y01341*
X00487Y01375*
X00397Y01423*
X00316Y0149*
X00249Y01571*
X00202Y0166*
X00176Y01755*
X00168Y01849*
X00176Y01939*
X00202Y02033*
X00249Y02122*
X00311Y02204*
X00391Y02269*
X00478Y02318*
X00575Y02349*
X00676Y02361*
X0068Y02357*
G37*
G36*
X02199Y02351D02*
X02293Y02317D01*
X02383Y02269*
X02464Y02202*
X02531Y02121*
X02578Y02032*
X02604Y01936*
X02612Y01843*
X02604Y01753*
X02578Y01659*
X02531Y0157*
X0247Y01488*
X0239Y01422*
X02302Y01374*
X02205Y01343*
X02109Y01332*
X02108Y01333*
X02106Y01336*
X02107Y01337*
X02107Y01337*
X02107Y01337*
X02107Y01339*
X02107Y01341*
X02107Y01341*
X02107Y01341*
Y01351*
X02108Y01352*
X02111Y01355*
X02112Y01355*
X02137Y01357*
X02179Y01362*
X02221Y01371*
X02262Y01384*
X02302Y01401*
X0234Y01421*
X02376Y01444*
X0241Y0147*
X02439Y01496*
X02442Y01499*
X02442Y01499*
X02471Y01531*
X02498Y01566*
X02521Y01602*
X02541Y01641*
X02558Y01681*
X02571Y01722*
X0258Y01765*
X02586Y01808*
X02587Y01832*
X02588Y01836*
X02588Y01837*
X02588Y01837*
X02588Y01837*
X02588Y01838*
X02587Y01841*
X02586Y01848*
X02582Y01858*
X02576Y01866*
X02568Y01872*
X02558Y01876*
X02549Y01877*
X02548Y01878*
X02548Y01878*
X02543*
X02485*
X02483Y0188*
X02476Y01887*
X02468Y01892*
X02459Y01894*
X02449*
X02439Y01892*
X02431Y01887*
X02424Y0188*
X02419Y01872*
X02417Y01862*
Y01853*
X02419Y01843*
X02424Y01835*
X02431Y01828*
X02439Y01823*
X02449Y0182*
X02459*
X02468Y01823*
X02476Y01828*
X02483Y01835*
X02485Y01837*
X02544*
X02547Y01834*
X02546Y01811*
X02541Y01772*
X02532Y01733*
X0252Y01695*
X02505Y01658*
X02495Y0164*
X02491Y01641*
Y01694*
X02417*
Y0166*
X02306Y01534*
X02249*
Y01528*
X02171*
X0217Y01528*
X02165Y01529*
X02122*
X02117Y01528*
X02113Y01526*
X02112Y01525*
X02107Y01526*
Y01527*
X02107Y01528*
X02107Y01528*
X02107Y0153*
X02107Y01531*
X02106Y01532*
X02106Y01532*
X02105Y01533*
X02104Y01535*
X02104Y01535*
X02104Y01535*
X02102Y01536*
X02101Y01537*
X02101Y01537*
X021Y01537*
Y01553*
X02101Y01553*
X02101Y01553*
X02102Y01554*
X02104Y01554*
X02104Y01555*
X02104Y01555*
X02105Y01556*
X02106Y01557*
X02106Y01558*
X02107Y01558*
X02107Y0156*
X02107Y01561*
X02107Y01562*
X02107Y01562*
Y01824*
X02112Y01825*
X02113Y01824*
X02117Y01821*
X02122Y0182*
X02133*
X02136Y01819*
X02144Y01817*
X02183*
Y01795*
X02185Y01787*
X02189Y0178*
X02196Y01776*
X02204Y01774*
X02249*
Y0176*
X02328*
Y01774*
X02402*
X02417Y0176*
Y01753*
X02419Y01743*
X02424Y01735*
X02431Y01728*
X02439Y01723*
X02449Y0172*
X02459*
X02468Y01723*
X02476Y01728*
X02483Y01735*
X02488Y01743*
X02491Y01753*
Y01762*
X02488Y01772*
X02483Y0178*
X02476Y01787*
X02468Y01792*
X02459Y01794*
X02449*
X02441Y01792*
X02425Y01809*
X02419Y01813*
X02411Y01815*
X02328*
Y01829*
X02249*
Y01815*
X02224*
Y01837*
X02222Y01845*
X02218Y01852*
X02211Y01856*
X02204Y01858*
X02176*
X02174Y01861*
X0217Y01863*
X02165Y01864*
X02122*
X02117Y01863*
X02113Y01861*
X02112Y0186*
X02107Y01861*
Y01862*
X02107Y01863*
X02107Y01863*
X02107Y01865*
X02107Y01866*
X02106Y01867*
X02106Y01867*
X02105Y01868*
X02104Y0187*
X02104Y0187*
X02104Y0187*
X02102Y01871*
X02101Y01872*
X02101Y01872*
X021Y01872*
Y01888*
X02101Y01888*
X02101Y01888*
X02102Y01889*
X02104Y01889*
X02104Y0189*
X02104Y0189*
X02105Y01891*
X02106Y01892*
X02106Y01893*
X02107Y01893*
X02107Y01895*
X02107Y01896*
X02107Y01897*
X02107Y01897*
Y02104*
X02112Y02105*
X02113Y02104*
X02117Y02101*
X02122Y021*
X02165*
X0217Y02101*
X02171Y02102*
X02204*
X02211Y02104*
X02218Y02108*
X02222Y02115*
X02224Y02122*
Y0217*
X02254*
Y02156*
X02333*
Y0217*
X02412*
X02433Y02149*
Y02088*
X02431Y02087*
X02424Y0208*
X02419Y02072*
X02417Y02062*
Y02053*
X02419Y02043*
X02424Y02035*
X02431Y02028*
X02439Y02023*
X02449Y0202*
X02459*
X02468Y02023*
X02476Y02028*
X02483Y02035*
X02488Y02043*
X02491Y02053*
Y02062*
X02488Y02072*
X02483Y0208*
X02476Y02087*
X02474Y02088*
Y02157*
X02472Y02165*
X02468Y02172*
X02435Y02205*
X02428Y02209*
X02421Y02211*
X02333*
Y02225*
X02254*
Y02211*
X02204*
X02196Y02209*
X02189Y02205*
X02185Y02198*
X02183Y0219*
Y02143*
X02171*
X0217Y02143*
X02165Y02144*
X02122*
X02117Y02143*
X02113Y02141*
X02112Y0214*
X02107Y02141*
Y02142*
X02107Y02143*
X02107Y02143*
X02107Y02145*
X02107Y02146*
X02106Y02147*
X02106Y02147*
X02105Y02148*
X02104Y0215*
X02104Y0215*
X02104Y0215*
X02102Y02151*
X02101Y02152*
X02101Y02152*
X021Y02152*
Y02168*
X02101Y02168*
X02101Y02168*
X02102Y02169*
X02104Y02169*
X02104Y0217*
X02104Y0217*
X02105Y02171*
X02106Y02172*
X02106Y02173*
X02107Y02173*
X02107Y02175*
X02107Y02176*
X02107Y02177*
X02107Y02177*
Y0235*
X02111Y02354*
X02199Y02351*
G37*
G36*
X00782D02*
X00876Y02317D01*
X00966Y02269*
X01047Y02202*
X01114Y02121*
X01161Y02032*
X01187Y01936*
X01195Y01843*
X01187Y01753*
X01161Y01659*
X01114Y0157*
X01052Y01488*
X00972Y01422*
X00885Y01374*
X00788Y01343*
X00692Y01332*
X0069Y01333*
X00689Y01336*
X00689Y01337*
X00689Y01337*
X00689Y01337*
X0069Y01339*
X0069Y01341*
X0069Y01341*
X0069Y01341*
Y01351*
X00691Y01352*
X00693Y01355*
X00694Y01355*
X00719Y01357*
X00762Y01362*
X00804Y01371*
X00845Y01384*
X00885Y01401*
X00923Y01421*
X00959Y01444*
X00993Y0147*
X01021Y01496*
X01025Y01499*
X01025Y01499*
X01054Y01531*
X01081Y01566*
X01104Y01602*
X01124Y01641*
X01141Y01681*
X01154Y01722*
X01163Y01765*
X01169Y01808*
X0117Y01832*
X0117Y01836*
X0117Y01837*
X0117Y01837*
X0117Y01837*
X0117Y01838*
X0117Y01841*
X01169Y01848*
X01165Y01858*
X01159Y01866*
X0115Y01872*
X01141Y01876*
X01131Y01877*
X01131Y01878*
X01131Y01878*
X01126*
X01067*
X01066Y0188*
X01059Y01887*
X01051Y01892*
X01041Y01894*
X01031*
X01022Y01892*
X01014Y01887*
X01007Y0188*
X01002Y01872*
X00999Y01862*
Y01853*
X01002Y01843*
X01007Y01835*
X01014Y01828*
X01022Y01823*
X01031Y0182*
X01041*
X01051Y01823*
X01059Y01828*
X01066Y01835*
X01067Y01837*
X01126*
X0113Y01834*
X01129Y01811*
X01124Y01772*
X01115Y01733*
X01103Y01695*
X01088Y01658*
X01078Y0164*
X01073Y01641*
Y01694*
X00999*
Y0166*
X00889Y01534*
X00832*
Y01528*
X00754*
X00753Y01528*
X00748Y01529*
X00705*
X007Y01528*
X00696Y01526*
X00695Y01525*
X0069Y01526*
Y01527*
X0069Y01528*
X0069Y01528*
X0069Y0153*
X00689Y01531*
X00689Y01532*
X00689Y01532*
X00688Y01533*
X00687Y01535*
X00687Y01535*
X00686Y01535*
X00685Y01536*
X00684Y01537*
X00683Y01537*
X00683Y01537*
Y01553*
X00683Y01553*
X00684Y01553*
X00685Y01554*
X00686Y01554*
X00687Y01555*
X00687Y01555*
X00688Y01556*
X00689Y01557*
X00689Y01558*
X00689Y01558*
X0069Y0156*
X0069Y01561*
X0069Y01562*
X0069Y01562*
Y01824*
X00695Y01825*
X00696Y01824*
X007Y01821*
X00705Y0182*
X00716*
X00719Y01819*
X00726Y01817*
X00766*
Y01795*
X00768Y01787*
X00772Y0178*
X00779Y01776*
X00786Y01774*
X00832*
Y0176*
X00911*
Y01774*
X00985*
X00999Y0176*
Y01753*
X01002Y01743*
X01007Y01735*
X01014Y01728*
X01022Y01723*
X01031Y0172*
X01041*
X01051Y01723*
X01059Y01728*
X01066Y01735*
X01071Y01743*
X01073Y01753*
Y01762*
X01071Y01772*
X01066Y0178*
X01059Y01787*
X01051Y01792*
X01041Y01794*
X01031*
X01024Y01792*
X01008Y01809*
X01001Y01813*
X00994Y01815*
X00911*
Y01829*
X00832*
Y01815*
X00807*
Y01837*
X00805Y01845*
X00801Y01852*
X00794Y01856*
X00786Y01858*
X00759*
X00757Y01861*
X00753Y01863*
X00748Y01864*
X00705*
X007Y01863*
X00696Y01861*
X00695Y0186*
X0069Y01861*
Y01862*
X0069Y01863*
X0069Y01863*
X0069Y01865*
X00689Y01866*
X00689Y01867*
X00689Y01867*
X00688Y01868*
X00687Y0187*
X00687Y0187*
X00686Y0187*
X00685Y01871*
X00684Y01872*
X00683Y01872*
X00683Y01872*
Y01888*
X00683Y01888*
X00684Y01888*
X00685Y01889*
X00686Y01889*
X00687Y0189*
X00687Y0189*
X00688Y01891*
X00689Y01892*
X00689Y01893*
X00689Y01893*
X0069Y01895*
X0069Y01896*
X0069Y01897*
X0069Y01897*
Y02104*
X00695Y02105*
X00696Y02104*
X007Y02101*
X00705Y021*
X00748*
X00753Y02101*
X00754Y02102*
X00786*
X00794Y02104*
X00801Y02108*
X00805Y02115*
X00807Y02122*
Y0217*
X00837*
Y02156*
X00916*
Y0217*
X00995*
X01016Y02149*
Y02088*
X01014Y02087*
X01007Y0208*
X01002Y02072*
X00999Y02062*
Y02053*
X01002Y02043*
X01007Y02035*
X01014Y02028*
X01022Y02023*
X01031Y0202*
X01041*
X01051Y02023*
X01059Y02028*
X01066Y02035*
X01071Y02043*
X01073Y02053*
Y02062*
X01071Y02072*
X01066Y0208*
X01059Y02087*
X01057Y02088*
Y02157*
X01055Y02165*
X01051Y02172*
X01018Y02205*
X01011Y02209*
X01003Y02211*
X00916*
Y02225*
X00837*
Y02211*
X00786*
X00779Y02209*
X00772Y02205*
X00768Y02198*
X00766Y0219*
Y02143*
X00754*
X00753Y02143*
X00748Y02144*
X00705*
X007Y02143*
X00696Y02141*
X00695Y0214*
X0069Y02141*
Y02142*
X0069Y02143*
X0069Y02143*
X0069Y02145*
X00689Y02146*
X00689Y02147*
X00689Y02147*
X00688Y02148*
X00687Y0215*
X00687Y0215*
X00686Y0215*
X00685Y02151*
X00684Y02152*
X00683Y02152*
X00683Y02152*
Y02168*
X00683Y02168*
X00684Y02168*
X00685Y02169*
X00686Y02169*
X00687Y0217*
X00687Y0217*
X00688Y02171*
X00689Y02172*
X00689Y02173*
X00689Y02173*
X0069Y02175*
X0069Y02176*
X0069Y02177*
X0069Y02177*
Y0235*
X00694Y02354*
X00782Y02351*
G37*
G36*
X01968Y01554D02*
X0197Y01546D01*
X01974Y0154*
X01986Y01528*
X01992Y01524*
X02Y01522*
X0206*
X02063Y01523*
X02081*
X02086Y01524*
X02091Y01527*
X02092Y01529*
X02097Y01527*
Y01398*
X02092Y01395*
X02054Y01397*
X02015Y01402*
X01977Y0141*
X01939Y01422*
X01902Y01437*
X01867Y01456*
X01834Y01477*
X01803Y01501*
X01774Y01527*
X01747Y01557*
X01723Y01588*
X01706Y01614*
X01709Y01617*
X0171Y01618*
X01719Y01615*
X01729*
X01738Y01618*
X01746Y01623*
X01753Y0163*
X01755Y01632*
X01839*
Y01618*
X01918*
Y01632*
X01968*
Y01554*
G37*
G36*
X00551D02*
X00553Y01546D01*
X00557Y0154*
X00569Y01528*
X00575Y01524*
X00583Y01522*
X00643*
X00646Y01523*
X00664*
X00669Y01524*
X00673Y01527*
X00675Y01529*
X0068Y01527*
Y01398*
X00675Y01395*
X00637Y01397*
X00598Y01402*
X00559Y0141*
X00522Y01422*
X00485Y01437*
X0045Y01456*
X00417Y01477*
X00385Y01501*
X00356Y01527*
X0033Y01557*
X00306Y01588*
X00289Y01614*
X00291Y01617*
X00292Y01618*
X00301Y01615*
X00311*
X00321Y01618*
X00329Y01623*
X00336Y0163*
X00337Y01632*
X00422*
Y01618*
X00501*
Y01632*
X00551*
Y01554*
G37*
G36*
X02482Y01616D02*
X02465Y01589D01*
X02441Y01557*
X02417Y01531*
X02413Y01528*
X02413Y01528*
X02413Y01528*
X02413Y01527*
X02385Y01501*
X02353Y01477*
X02333Y01464*
X02328Y01467*
Y01498*
X02435Y0162*
X0248*
X02482Y01616*
G37*
G36*
X01065D02*
X01048Y01589D01*
X01023Y01557*
X01Y01531*
X00996Y01528*
X00996Y01528*
X00996Y01528*
X00995Y01527*
X00967Y01501*
X00936Y01477*
X00915Y01464*
X00911Y01467*
Y01498*
X01018Y0162*
X01063*
X01065Y01616*
G37*
G36*
X02113Y01489D02*
X02117Y01486D01*
X02122Y01485*
X02165*
X0217Y01486*
X02171Y01487*
X02249*
Y01465*
X02325*
X02327Y0146*
X0232Y01456*
X02285Y01437*
X02248Y01422*
X02211Y0141*
X02172Y01402*
X02133Y01397*
X02112Y01396*
X02111Y01396*
X02111Y01396*
X02107Y014*
Y01489*
X02112Y0149*
X02113Y01489*
G37*
G36*
X00696D02*
X007Y01486D01*
X00705Y01485*
X00748*
X00753Y01486*
X00754Y01487*
X00832*
Y01465*
X00908*
X00909Y0146*
X00903Y01456*
X00868Y01437*
X00831Y01422*
X00793Y0141*
X00755Y01402*
X00716Y01397*
X00695Y01396*
X00694Y01396*
X00694Y01396*
X0069Y014*
Y01489*
X00695Y0149*
X00696Y01489*
G37*
G36*
X02097Y01176D02*
Y00996D01*
X02092Y00995*
X02091Y00997*
X02086Y01*
X02081Y01001*
X02039*
X02034Y01*
X02033Y00999*
X01923*
Y01023*
X01844*
Y00994*
X01826*
X01818Y00992*
X01812Y00988*
X01732Y00908*
X01687*
Y00834*
X01761*
Y0088*
X01834Y00953*
X01869*
X01871Y00954*
X01923*
Y00958*
X02033*
X02034Y00958*
X02039Y00957*
X02081*
X02086Y00958*
X02091Y00961*
X02092Y00963*
X02097Y00961*
Y00716*
X02092Y00715*
X02091Y00717*
X02086Y0072*
X02081Y00721*
X02049*
X02045Y00722*
X02019*
Y00728*
X02017Y00735*
X02013Y00742*
X02001Y00754*
X01995Y00758*
X01987Y00759*
X01923*
Y00774*
X01844*
Y00759*
X0183*
X01822Y00758*
X01816Y00754*
X01804Y00742*
X018Y00735*
X01798Y00728*
Y00592*
X01755*
X01753Y00594*
X01746Y00601*
X01738Y00606*
X01729Y00608*
X01719*
X01709Y00606*
X01701Y00601*
X01694Y00594*
X01689Y00586*
X01687Y00576*
Y00566*
X01689Y00557*
X01694Y00549*
X01701Y00542*
X01709Y00537*
X01719Y00534*
X01729*
X01738Y00537*
X01746Y00542*
X01753Y00549*
X01755Y00551*
X01807*
X01815Y00553*
X01821Y00557*
X01833Y00569*
X01837Y00575*
X01839Y00583*
Y00719*
X01844*
Y00705*
X01923*
Y00719*
X01978*
Y00713*
X0198Y00705*
X01984Y00699*
X01996Y00687*
X02002Y00683*
X0201Y00681*
X02029*
X0203Y00681*
X02034Y00678*
X02039Y00677*
X02081*
X02086Y00678*
X02091Y00681*
X02092Y00683*
X02097Y00681*
Y00381*
X02092Y0038*
X02091Y00382*
X02086Y00385*
X02081Y00386*
X02039*
X02034Y00385*
X0203Y00382*
X02029Y00382*
X02009*
Y0046*
X02007Y00468*
X02003Y00474*
X01991Y00486*
X01985Y0049*
X01977Y00492*
X01918*
Y00506*
X01839*
Y00492*
X01755*
X01753Y00494*
X01746Y00501*
X01738Y00506*
X01729Y00508*
X01719*
X01709Y00506*
X01701Y00501*
X01694Y00494*
X01689Y00486*
X01687Y00479*
X01682Y00478*
X01668Y00512*
X01657Y00549*
X01648Y00588*
X01643Y00627*
X01642Y00649*
X01645Y00653*
X01692*
X01694Y00649*
X01701Y00642*
X01709Y00637*
X01719Y00634*
X01729*
X01738Y00637*
X01746Y00642*
X01753Y00649*
X01758Y00657*
X01761Y00666*
Y00676*
X01758Y00686*
X01753Y00694*
X01746Y00701*
X01738Y00706*
X01729Y00708*
X01719*
X01709Y00706*
X01701Y00701*
X01694Y00694*
X01694Y00693*
X01641*
X0164Y00693*
X01631Y00692*
X01621Y00688*
X01613Y00681*
X01607Y00673*
X01603Y00664*
X01601Y00653*
X01601Y00653*
X01601Y00653*
X01601Y00652*
Y00652*
X01602Y00647*
X01603Y00623*
X01608Y00581*
X01618Y00539*
X01631Y00498*
X01647Y00458*
X01667Y0042*
X0169Y00384*
X01716Y0035*
X01745Y00318*
X01777Y00289*
X01811Y00263*
X01847Y0024*
X01885Y0022*
X01925Y00203*
X01966Y0019*
X02008Y00181*
X02051Y00175*
X02094Y00174*
X02094*
X02097Y0017*
Y0016*
X02094Y00156*
X01999Y0016*
X01905Y00194*
X01814Y00242*
X01734Y00308*
X01666Y0039*
X0162Y00479*
X01593Y00574*
X01585Y00668*
X01593Y00758*
X0162Y00852*
X01666Y00941*
X01728Y01022*
X01808Y01088*
X01896Y01137*
X01993Y01168*
X02094Y01179*
X02097Y01176*
G37*
G36*
X0068D02*
Y00996D01*
X00675Y00995*
X00673Y00997*
X00669Y01*
X00664Y01001*
X00622*
X00617Y01*
X00615Y00999*
X00506*
Y01023*
X00427*
Y00994*
X00409*
X00401Y00992*
X00394Y00988*
X00315Y00908*
X00269*
Y00834*
X00343*
Y0088*
X00417Y00953*
X00452*
X00454Y00954*
X00506*
Y00958*
X00615*
X00617Y00958*
X00622Y00957*
X00664*
X00669Y00958*
X00673Y00961*
X00675Y00963*
X0068Y00961*
Y00716*
X00675Y00715*
X00673Y00717*
X00669Y0072*
X00664Y00721*
X00632*
X00628Y00722*
X00602*
Y00728*
X006Y00735*
X00596Y00742*
X00584Y00754*
X00578Y00758*
X0057Y00759*
X00506*
Y00774*
X00427*
Y00759*
X00413*
X00405Y00758*
X00399Y00754*
X00387Y00742*
X00383Y00735*
X00381Y00728*
Y00592*
X00337*
X00336Y00594*
X00329Y00601*
X00321Y00606*
X00311Y00608*
X00301*
X00292Y00606*
X00284Y00601*
X00277Y00594*
X00272Y00586*
X00269Y00576*
Y00566*
X00272Y00557*
X00277Y00549*
X00284Y00542*
X00292Y00537*
X00301Y00534*
X00311*
X00321Y00537*
X00329Y00542*
X00336Y00549*
X00337Y00551*
X0039*
X00398Y00553*
X00404Y00557*
X00416Y00569*
X0042Y00575*
X00422Y00583*
Y00719*
X00427*
Y00705*
X00506*
Y00719*
X00561*
Y00713*
X00563Y00705*
X00567Y00699*
X00579Y00687*
X00585Y00683*
X00593Y00681*
X00612*
X00612Y00681*
X00617Y00678*
X00622Y00677*
X00664*
X00669Y00678*
X00673Y00681*
X00675Y00683*
X0068Y00681*
Y00381*
X00675Y0038*
X00673Y00382*
X00669Y00385*
X00664Y00386*
X00622*
X00617Y00385*
X00612Y00382*
X00612Y00382*
X00592*
Y0046*
X0059Y00468*
X00586Y00474*
X00574Y00486*
X00568Y0049*
X0056Y00492*
X00501*
Y00506*
X00422*
Y00492*
X00337*
X00336Y00494*
X00329Y00501*
X00321Y00506*
X00311Y00508*
X00301*
X00292Y00506*
X00284Y00501*
X00277Y00494*
X00272Y00486*
X0027Y00479*
X00265Y00478*
X00251Y00512*
X00239Y00549*
X00231Y00588*
X00226Y00627*
X00225Y00649*
X00228Y00653*
X00274*
X00277Y00649*
X00284Y00642*
X00292Y00637*
X00301Y00634*
X00311*
X00321Y00637*
X00329Y00642*
X00336Y00649*
X00341Y00657*
X00343Y00666*
Y00676*
X00341Y00686*
X00336Y00694*
X00329Y00701*
X00321Y00706*
X00311Y00708*
X00301*
X00292Y00706*
X00284Y00701*
X00277Y00694*
X00276Y00693*
X00224*
X00223Y00693*
X00213Y00692*
X00204Y00688*
X00196Y00681*
X00189Y00673*
X00185Y00664*
X00184Y00653*
X00184Y00653*
X00184Y00653*
X00184Y00652*
Y00652*
X00184Y00647*
X00185Y00623*
X00191Y00581*
X002Y00539*
X00213Y00498*
X0023Y00458*
X0025Y0042*
X00273Y00384*
X00299Y0035*
X00328Y00318*
X0036Y00289*
X00394Y00263*
X0043Y0024*
X00468Y0022*
X00508Y00203*
X00549Y0019*
X00591Y00181*
X00633Y00175*
X00676Y00174*
X00676*
X0068Y0017*
Y0016*
X00676Y00156*
X00581Y0016*
X00487Y00194*
X00397Y00242*
X00316Y00308*
X00249Y0039*
X00202Y00479*
X00176Y00574*
X00168Y00668*
X00176Y00758*
X00202Y00852*
X00249Y00941*
X00311Y01022*
X00391Y01088*
X00478Y01137*
X00575Y01168*
X00676Y01179*
X0068Y01176*
G37*
G36*
X02199Y01169D02*
X02293Y01136D01*
X02383Y01088*
X02464Y01021*
X02531Y0094*
X02578Y00851*
X02604Y00755*
X02612Y00661*
X02604Y00572*
X02578Y00477*
X02531Y00389*
X0247Y00307*
X0239Y00241*
X02302Y00192*
X02205Y00162*
X02109Y00151*
X02108Y00152*
X02106Y00155*
X02107Y00156*
X02107Y00156*
X02107Y00156*
X02107Y00158*
X02107Y0016*
X02107Y0016*
X02107Y0016*
Y0017*
X02108Y00171*
X02111Y00174*
X02112Y00174*
X02137Y00175*
X02179Y00181*
X02221Y0019*
X02262Y00203*
X02302Y0022*
X0234Y0024*
X02376Y00263*
X0241Y00289*
X02439Y00315*
X02442Y00318*
X02442Y00318*
Y00318*
X02471Y0035*
X02498Y00384*
X02521Y00421*
X02541Y0046*
X02558Y005*
X02571Y00541*
X0258Y00584*
X02586Y00627*
X02587Y00651*
X02588Y00655*
X02588Y00655*
X02588Y00656*
X02588Y00656*
X02588Y00657*
X02587Y0066*
X02586Y00667*
X02582Y00677*
X02576Y00685*
X02568Y00691*
X02558Y00695*
X02549Y00696*
X02548Y00697*
X02548Y00697*
X02543*
X02485*
X02483Y00699*
X02476Y00706*
X02468Y00711*
X02459Y00713*
X02449*
X02439Y00711*
X02431Y00706*
X02424Y00699*
X02419Y00691*
X02417Y00681*
Y00671*
X02419Y00662*
X02424Y00654*
X02431Y00647*
X02439Y00642*
X02449Y00639*
X02459*
X02468Y00642*
X02476Y00647*
X02483Y00654*
X02485Y00656*
X02544*
X02547Y00652*
X02546Y0063*
X02541Y00591*
X02532Y00552*
X0252Y00514*
X02505Y00477*
X02495Y00459*
X02491Y0046*
Y00513*
X02417*
Y00479*
X02306Y00353*
X02249*
Y00347*
X02171*
X0217Y00347*
X02165Y00348*
X02122*
X02117Y00347*
X02113Y00345*
X02112Y00344*
X02107Y00345*
Y00346*
X02107Y00347*
X02107Y00347*
X02107Y00349*
X02107Y0035*
X02106Y00351*
X02106Y00351*
X02105Y00352*
X02104Y00353*
X02104Y00354*
X02104Y00354*
X02102Y00355*
X02101Y00356*
X02101Y00356*
X021Y00356*
Y00372*
X02101Y00372*
X02101Y00372*
X02102Y00373*
X02104Y00373*
X02104Y00374*
X02104Y00374*
X02105Y00375*
X02106Y00376*
X02106Y00377*
X02107Y00377*
X02107Y00379*
X02107Y0038*
X02107Y00381*
X02107Y00381*
Y00642*
X02112Y00644*
X02113Y00643*
X02117Y0064*
X02122Y00639*
X02133*
X02136Y00638*
X02144Y00636*
X02183*
Y00613*
X02185Y00606*
X02189Y00599*
X02196Y00595*
X02204Y00593*
X02249*
Y00579*
X02328*
Y00593*
X02402*
X02417Y00579*
Y00571*
X02419Y00562*
X02424Y00554*
X02431Y00547*
X02439Y00542*
X02449Y00539*
X02459*
X02468Y00542*
X02476Y00547*
X02483Y00554*
X02488Y00562*
X02491Y00571*
Y00581*
X02488Y00591*
X02483Y00599*
X02476Y00606*
X02468Y00611*
X02459Y00613*
X02449*
X02441Y00611*
X02425Y00628*
X02419Y00632*
X02411Y00634*
X02328*
Y00648*
X02249*
Y00634*
X02224*
Y00656*
X02222Y00664*
X02218Y00671*
X02211Y00675*
X02204Y00677*
X02176*
X02174Y0068*
X0217Y00682*
X02165Y00683*
X02122*
X02117Y00682*
X02113Y0068*
X02112Y00679*
X02107Y0068*
Y00681*
X02107Y00682*
X02107Y00682*
X02107Y00684*
X02107Y00685*
X02106Y00686*
X02106Y00686*
X02105Y00687*
X02104Y00688*
X02104Y00689*
X02104Y00689*
X02102Y0069*
X02101Y00691*
X02101Y00691*
X021Y00691*
Y00707*
X02101Y00707*
X02101Y00707*
X02102Y00708*
X02104Y00708*
X02104Y00709*
X02104Y00709*
X02105Y0071*
X02106Y00711*
X02106Y00712*
X02107Y00712*
X02107Y00714*
X02107Y00715*
X02107Y00716*
X02107Y00716*
Y00922*
X02112Y00924*
X02113Y00923*
X02117Y0092*
X02122Y00919*
X02165*
X0217Y0092*
X02171Y00921*
X02204*
X02211Y00923*
X02218Y00927*
X02222Y00934*
X02224Y00941*
Y00989*
X02254*
Y00975*
X02333*
Y00989*
X02412*
X02433Y00968*
Y00907*
X02431Y00906*
X02424Y00899*
X02419Y00891*
X02417Y00881*
Y00871*
X02419Y00862*
X02424Y00854*
X02431Y00847*
X02439Y00842*
X02449Y00839*
X02459*
X02468Y00842*
X02476Y00847*
X02483Y00854*
X02488Y00862*
X02491Y00871*
Y00881*
X02488Y00891*
X02483Y00899*
X02476Y00906*
X02474Y00907*
Y00976*
X02472Y00984*
X02468Y00991*
X02435Y01024*
X02428Y01028*
X02421Y01029*
X02333*
Y01044*
X02254*
Y01029*
X02204*
X02196Y01028*
X02189Y01024*
X02185Y01017*
X02183Y01009*
Y00962*
X02171*
X0217Y00962*
X02165Y00963*
X02122*
X02117Y00962*
X02113Y0096*
X02112Y00959*
X02107Y0096*
Y00961*
X02107Y00962*
X02107Y00962*
X02107Y00964*
X02107Y00965*
X02106Y00966*
X02106Y00966*
X02105Y00967*
X02104Y00968*
X02104Y00969*
X02104Y00969*
X02102Y0097*
X02101Y00971*
X02101Y00971*
X021Y00971*
Y00987*
X02101Y00987*
X02101Y00987*
X02102Y00988*
X02104Y00988*
X02104Y00989*
X02104Y00989*
X02105Y0099*
X02106Y00991*
X02106Y00992*
X02107Y00992*
X02107Y00994*
X02107Y00995*
X02107Y00996*
X02107Y00996*
Y01169*
X02111Y01173*
X02199Y01169*
G37*
G36*
X00782D02*
X00876Y01136D01*
X00966Y01088*
X01047Y01021*
X01114Y0094*
X01161Y00851*
X01187Y00755*
X01195Y00661*
X01187Y00572*
X01161Y00477*
X01114Y00389*
X01052Y00307*
X00972Y00241*
X00885Y00192*
X00788Y00162*
X00692Y00151*
X0069Y00152*
X00689Y00155*
X00689Y00156*
X00689Y00156*
X00689Y00156*
X0069Y00158*
X0069Y0016*
X0069Y0016*
X0069Y0016*
Y0017*
X00691Y00171*
X00693Y00174*
X00694Y00174*
X00719Y00175*
X00762Y00181*
X00804Y0019*
X00845Y00203*
X00885Y0022*
X00923Y0024*
X00959Y00263*
X00993Y00289*
X01021Y00315*
X01025Y00318*
X01025Y00318*
Y00318*
X01054Y0035*
X01081Y00384*
X01104Y00421*
X01124Y0046*
X01141Y005*
X01154Y00541*
X01163Y00584*
X01169Y00627*
X0117Y00651*
X0117Y00655*
X0117Y00655*
X0117Y00656*
X0117Y00656*
X0117Y00657*
X0117Y0066*
X01169Y00667*
X01165Y00677*
X01159Y00685*
X0115Y00691*
X01141Y00695*
X01131Y00696*
X01131Y00697*
X01131Y00697*
X01126*
X01067*
X01066Y00699*
X01059Y00706*
X01051Y00711*
X01041Y00713*
X01031*
X01022Y00711*
X01014Y00706*
X01007Y00699*
X01002Y00691*
X00999Y00681*
Y00671*
X01002Y00662*
X01007Y00654*
X01014Y00647*
X01022Y00642*
X01031Y00639*
X01041*
X01051Y00642*
X01059Y00647*
X01066Y00654*
X01067Y00656*
X01126*
X0113Y00652*
X01129Y0063*
X01124Y00591*
X01115Y00552*
X01103Y00514*
X01088Y00477*
X01078Y00459*
X01073Y0046*
Y00513*
X00999*
Y00479*
X00889Y00353*
X00832*
Y00347*
X00754*
X00753Y00347*
X00748Y00348*
X00705*
X007Y00347*
X00696Y00345*
X00695Y00344*
X0069Y00345*
Y00346*
X0069Y00347*
X0069Y00347*
X0069Y00349*
X00689Y0035*
X00689Y00351*
X00689Y00351*
X00688Y00352*
X00687Y00353*
X00687Y00354*
X00686Y00354*
X00685Y00355*
X00684Y00356*
X00683Y00356*
X00683Y00356*
Y00372*
X00683Y00372*
X00684Y00372*
X00685Y00373*
X00686Y00373*
X00687Y00374*
X00687Y00374*
X00688Y00375*
X00689Y00376*
X00689Y00377*
X00689Y00377*
X0069Y00379*
X0069Y0038*
X0069Y00381*
X0069Y00381*
Y00642*
X00695Y00644*
X00696Y00643*
X007Y0064*
X00705Y00639*
X00716*
X00719Y00638*
X00726Y00636*
X00766*
Y00613*
X00768Y00606*
X00772Y00599*
X00779Y00595*
X00786Y00593*
X00832*
Y00579*
X00911*
Y00593*
X00985*
X00999Y00579*
Y00571*
X01002Y00562*
X01007Y00554*
X01014Y00547*
X01022Y00542*
X01031Y00539*
X01041*
X01051Y00542*
X01059Y00547*
X01066Y00554*
X01071Y00562*
X01073Y00571*
Y00581*
X01071Y00591*
X01066Y00599*
X01059Y00606*
X01051Y00611*
X01041Y00613*
X01031*
X01024Y00611*
X01008Y00628*
X01001Y00632*
X00994Y00634*
X00911*
Y00648*
X00832*
Y00634*
X00807*
Y00656*
X00805Y00664*
X00801Y00671*
X00794Y00675*
X00786Y00677*
X00759*
X00757Y0068*
X00753Y00682*
X00748Y00683*
X00705*
X007Y00682*
X00696Y0068*
X00695Y00679*
X0069Y0068*
Y00681*
X0069Y00682*
X0069Y00682*
X0069Y00684*
X00689Y00685*
X00689Y00686*
X00689Y00686*
X00688Y00687*
X00687Y00688*
X00687Y00689*
X00686Y00689*
X00685Y0069*
X00684Y00691*
X00683Y00691*
X00683Y00691*
Y00707*
X00683Y00707*
X00684Y00707*
X00685Y00708*
X00686Y00708*
X00687Y00709*
X00687Y00709*
X00688Y0071*
X00689Y00711*
X00689Y00712*
X00689Y00712*
X0069Y00714*
X0069Y00715*
X0069Y00716*
X0069Y00716*
Y00922*
X00695Y00924*
X00696Y00923*
X007Y0092*
X00705Y00919*
X00748*
X00753Y0092*
X00754Y00921*
X00786*
X00794Y00923*
X00801Y00927*
X00805Y00934*
X00807Y00941*
Y00989*
X00837*
Y00975*
X00916*
Y00989*
X00995*
X01016Y00968*
Y00907*
X01014Y00906*
X01007Y00899*
X01002Y00891*
X00999Y00881*
Y00871*
X01002Y00862*
X01007Y00854*
X01014Y00847*
X01022Y00842*
X01031Y00839*
X01041*
X01051Y00842*
X01059Y00847*
X01066Y00854*
X01071Y00862*
X01073Y00871*
Y00881*
X01071Y00891*
X01066Y00899*
X01059Y00906*
X01057Y00907*
Y00976*
X01055Y00984*
X01051Y00991*
X01018Y01024*
X01011Y01028*
X01003Y01029*
X00916*
Y01044*
X00837*
Y01029*
X00786*
X00779Y01028*
X00772Y01024*
X00768Y01017*
X00766Y01009*
Y00962*
X00754*
X00753Y00962*
X00748Y00963*
X00705*
X007Y00962*
X00696Y0096*
X00695Y00959*
X0069Y0096*
Y00961*
X0069Y00962*
X0069Y00962*
X0069Y00964*
X00689Y00965*
X00689Y00966*
X00689Y00966*
X00688Y00967*
X00687Y00968*
X00687Y00969*
X00686Y00969*
X00685Y0097*
X00684Y00971*
X00683Y00971*
X00683Y00971*
Y00987*
X00683Y00987*
X00684Y00987*
X00685Y00988*
X00686Y00988*
X00687Y00989*
X00687Y00989*
X00688Y0099*
X00689Y00991*
X00689Y00992*
X00689Y00992*
X0069Y00994*
X0069Y00995*
X0069Y00996*
X0069Y00996*
Y01169*
X00694Y01173*
X00782Y01169*
G37*
G36*
X01968Y00373D02*
X0197Y00365D01*
X01974Y00359*
X01986Y00347*
X01992Y00343*
X02Y00341*
X0206*
X02063Y00342*
X02081*
X02086Y00343*
X02091Y00346*
X02092Y00348*
X02097Y00346*
Y00217*
X02092Y00214*
X02054Y00216*
X02015Y00221*
X01977Y00229*
X01939Y00241*
X01902Y00256*
X01867Y00274*
X01834Y00296*
X01803Y0032*
X01774Y00346*
X01747Y00375*
X01723Y00407*
X01706Y00433*
X01709Y00436*
X0171Y00437*
X01719Y00434*
X01729*
X01738Y00437*
X01746Y00442*
X01753Y00449*
X01755Y00451*
X01839*
Y00437*
X01918*
Y00451*
X01968*
Y00373*
G37*
G36*
X00551D02*
X00553Y00365D01*
X00557Y00359*
X00569Y00347*
X00575Y00343*
X00583Y00341*
X00643*
X00646Y00342*
X00664*
X00669Y00343*
X00673Y00346*
X00675Y00348*
X0068Y00346*
Y00217*
X00675Y00214*
X00637Y00216*
X00598Y00221*
X00559Y00229*
X00522Y00241*
X00485Y00256*
X0045Y00274*
X00417Y00296*
X00385Y0032*
X00356Y00346*
X0033Y00375*
X00306Y00407*
X00289Y00433*
X00291Y00436*
X00292Y00437*
X00301Y00434*
X00311*
X00321Y00437*
X00329Y00442*
X00336Y00449*
X00337Y00451*
X00422*
Y00437*
X00501*
Y00451*
X00551*
Y00373*
G37*
G36*
X02482Y00435D02*
X02465Y00408D01*
X02441Y00376*
X02417Y0035*
X02413Y00347*
X02413Y00347*
X02413Y00347*
X02413Y00345*
X02385Y0032*
X02353Y00296*
X02333Y00283*
X02328Y00286*
Y00317*
X02435Y00439*
X0248*
X02482Y00435*
G37*
G36*
X01065D02*
X01048Y00408D01*
X01023Y00376*
X01Y0035*
X00996Y00347*
X00996Y00347*
X00996Y00347*
X00995Y00345*
X00967Y0032*
X00936Y00296*
X00915Y00283*
X00911Y00286*
Y00317*
X01018Y00439*
X01063*
X01065Y00435*
G37*
G36*
X02113Y00308D02*
X02117Y00305D01*
X02122Y00304*
X02165*
X0217Y00305*
X02171Y00306*
X02249*
Y00284*
X02325*
X02327Y00279*
X0232Y00274*
X02285Y00256*
X02248Y00241*
X02211Y00229*
X02172Y00221*
X02133Y00216*
X02112Y00215*
X02111Y00215*
X02111Y00215*
X02107Y00219*
Y00307*
X02112Y00309*
X02113Y00308*
G37*
G36*
X00696D02*
X007Y00305D01*
X00705Y00304*
X00748*
X00753Y00305*
X00754Y00306*
X00832*
Y00284*
X00908*
X00909Y00279*
X00903Y00274*
X00868Y00256*
X00831Y00241*
X00793Y00229*
X00755Y00221*
X00716Y00216*
X00695Y00215*
X00694Y00215*
X00694Y00215*
X0069Y00219*
Y00307*
X00695Y00309*
X00696Y00308*
G37*
%LNpcb2_copper_signal_bot-2*%
%LPC*%
G36*
X02454Y01978D02*
X02444D01*
X02437Y01976*
X0243Y01972*
X02426Y01965*
X02424Y01957*
X02426Y0195*
X0243Y01943*
X02437Y01939*
X02444Y01937*
X02454*
X02461Y01939*
X02468Y01943*
X02472Y0195*
X02474Y01957*
X02472Y01965*
X02468Y01972*
X02461Y01976*
X02454Y01978*
G37*
G36*
X01036D02*
X01027D01*
X01019Y01976*
X01013Y01972*
X01008Y01965*
X01007Y01957*
X01008Y0195*
X01013Y01943*
X01019Y01939*
X01027Y01937*
X01036*
X01044Y01939*
X01051Y01943*
X01055Y0195*
X01057Y01957*
X01055Y01965*
X01051Y01972*
X01044Y01976*
X01036Y01978*
G37*
G36*
X02454Y00797D02*
X02444D01*
X02437Y00795*
X0243Y00791*
X02426Y00784*
X02424Y00776*
X02426Y00769*
X0243Y00762*
X02437Y00758*
X02444Y00756*
X02454*
X02461Y00758*
X02468Y00762*
X02472Y00769*
X02474Y00776*
X02472Y00784*
X02468Y00791*
X02461Y00795*
X02454Y00797*
G37*
G36*
X01036D02*
X01027D01*
X01019Y00795*
X01013Y00791*
X01008Y00784*
X01007Y00776*
X01008Y00769*
X01013Y00762*
X01019Y00758*
X01027Y00756*
X01036*
X01044Y00758*
X01051Y00762*
X01055Y00769*
X01057Y00776*
X01055Y00784*
X01051Y00791*
X01044Y00795*
X01036Y00797*
G37*
%LNpcb2_copper_signal_bot-3*%
%LPD*%
G54D11*
X01036Y00476D03*
X00306Y00871D03*
X02454Y00476D03*
X01724Y00871D03*
X01036Y01657D03*
X00306Y02052D03*
X02454Y01657D03*
X01724Y02052D03*
G54D12*
X01036Y00576D03*
Y00676D03*
Y00776D03*
Y00876D03*
X00306Y00771D03*
Y00671D03*
Y00571D03*
Y00471D03*
X02454Y00576D03*
Y00676D03*
Y00776D03*
Y00876D03*
X01724Y00771D03*
Y00671D03*
Y00571D03*
Y00471D03*
X01036Y01757D03*
Y01857D03*
Y01957D03*
Y02057D03*
X00306Y01952D03*
Y01852D03*
Y01752D03*
Y01652D03*
X02454Y01757D03*
Y01857D03*
Y01957D03*
Y02057D03*
X01724Y01952D03*
Y01852D03*
Y01752D03*
Y01652D03*
G54D13*
X0115Y00656D02*
D01*
X0115Y00657*
X0115Y00659*
X0115Y0066*
X0115Y00661*
X01149Y00663*
X01149Y00664*
X01148Y00665*
X01148Y00667*
X01147Y00668*
X01146Y00669*
X01145Y0067*
X01144Y00671*
X01143Y00672*
X01142Y00673*
X01141Y00673*
X0114Y00674*
X01138Y00675*
X01137Y00675*
X01136Y00676*
X01135Y00676*
X01133Y00676*
X01132Y00676*
X01131Y00676*
X00204Y00653D02*
D01*
X00206Y0062*
X00211Y00587*
X00217Y00555*
X00226Y00523*
X00237Y00492*
X0025Y00462*
X00266Y00433*
X00283Y00405*
X00302Y00378*
X00323Y00352*
X00346Y00328*
X0037Y00306*
X00396Y00286*
X00424Y00267*
X00452Y00251*
X00482Y00236*
X00512Y00223*
X00543Y00213*
X00575Y00205*
X00608Y00199*
X00641Y00195*
X00673Y00194*
X00706Y00195*
X00739Y00198*
X00772Y00204*
X00804Y00211*
X00835Y00221*
X00866Y00234*
X00896Y00248*
X00924Y00264*
X00952Y00282*
X00978Y00303*
X01002Y00324*
X0101Y00332*
X00224Y00673D02*
D01*
X00222Y00673*
X00221Y00673*
X0022Y00672*
X00218Y00672*
X00217Y00672*
X00216Y00671*
X00215Y00671*
X00213Y0067*
X00212Y00669*
X00211Y00668*
X0021Y00667*
X00209Y00666*
X00208Y00665*
X00207Y00664*
X00207Y00663*
X00206Y00662*
X00206Y00661*
X00205Y00659*
X00205Y00658*
X00204Y00657*
X00204Y00655*
X00204Y00654*
X00204Y00653*
X0101Y00332D02*
D01*
X01033Y00357*
X01054Y00383*
X01073Y0041*
X01091Y00439*
X01106Y00468*
X01119Y00499*
X0113Y00531*
X01138Y00563*
X01145Y00596*
X01149Y00629*
X0115Y00656*
X00306Y00671D02*
D01*
X00306Y00672*
X00306Y00672*
X00305Y00672*
X00305Y00672*
X00305Y00672*
X00304Y00673*
X00304Y00673*
X00304Y00673*
X00303Y00673*
X00303Y00673*
X00303Y00673*
X00303Y00673*
X00891Y00325D02*
D01*
X00891Y00325*
X00891Y00325*
X00891Y00325*
X00891Y00325*
X00891Y00325*
X01019Y00471D02*
D01*
X01018Y0047*
X01017Y00469*
X01036Y00676D02*
X01131D01*
X00301Y00673D02*
X00303D01*
X00224D02*
X00301D01*
X01019Y00471D02*
X01036Y00476D01*
X00871Y00318D02*
X00891Y00325D01*
X00891Y00325D02*
X01017Y00469D01*
X00413Y00739D02*
X00466D01*
X00401Y00583D02*
Y00728D01*
X00413Y00739*
X0039Y00571D02*
X00401Y00583D01*
X00306Y00571D02*
X0039D01*
X00876Y01009D02*
X01003D01*
X01036Y00876D02*
Y00976D01*
X01003Y01009D02*
X01036Y00976D01*
X00786Y01009D02*
X00876D01*
X00466Y00988D02*
X00476Y00979D01*
X00643*
X00583Y00361D02*
X00643D01*
X00461Y00471D02*
X0056D01*
X00571Y0046*
Y00373D02*
Y0046D01*
Y00373D02*
X00583Y00361D01*
X00726Y00326D02*
X00871D01*
Y00318D02*
Y00326D01*
X00643Y00361D02*
Y00364D01*
X00786Y00941D02*
Y01009D01*
X00726Y00941D02*
X00786D01*
X0057Y00739D02*
X00581Y00728D01*
Y00713D02*
X00593Y00701D01*
X00581Y00713D02*
Y00728D01*
X00628Y00701D02*
X0063Y00699D01*
X00461Y00739D02*
X0057D01*
X00593Y00701D02*
X00628D01*
X0063Y00699D02*
X00643D01*
X00726Y00656D02*
X00786D01*
Y00613D02*
X00871D01*
X00726Y00656D02*
Y00661D01*
X00786Y00613D02*
Y00656D01*
X01027Y00776D02*
X01036D01*
X00994Y00613D02*
X01031Y00576D01*
X00871Y00613D02*
X00994D01*
X01031Y00576D02*
X01036D01*
X00306Y00471D02*
X00461D01*
X00306Y00871D02*
X00409Y00974D01*
X00452*
X00466Y00988*
X02568Y00656D02*
D01*
X02568Y00657*
X02567Y00659*
X02567Y0066*
X02567Y00661*
X02567Y00663*
X02566Y00664*
X02566Y00665*
X02565Y00667*
X02564Y00668*
X02563Y00669*
X02562Y0067*
X02561Y00671*
X0256Y00672*
X02559Y00673*
X02558Y00673*
X02557Y00674*
X02556Y00675*
X02555Y00675*
X02553Y00676*
X02552Y00676*
X02551Y00676*
X02549Y00676*
X02548Y00676*
X01621Y00653D02*
D01*
X01624Y0062*
X01628Y00587*
X01635Y00555*
X01643Y00523*
X01655Y00492*
X01668Y00462*
X01683Y00433*
X017Y00405*
X0172Y00378*
X01741Y00352*
X01763Y00328*
X01788Y00306*
X01814Y00286*
X01841Y00267*
X01869Y00251*
X01899Y00236*
X01929Y00223*
X01961Y00213*
X01993Y00205*
X02025Y00199*
X02058Y00195*
X02091Y00194*
X02124Y00195*
X02157Y00198*
X02189Y00204*
X02221Y00211*
X02253Y00221*
X02283Y00234*
X02313Y00248*
X02342Y00264*
X02369Y00282*
X02395Y00303*
X0242Y00324*
X02428Y00332*
X01641Y00673D02*
D01*
X0164Y00673*
X01638Y00673*
X01637Y00672*
X01636Y00672*
X01634Y00672*
X01633Y00671*
X01632Y00671*
X01631Y0067*
X0163Y00669*
X01628Y00668*
X01627Y00667*
X01626Y00666*
X01626Y00665*
X01625Y00664*
X01624Y00663*
X01623Y00662*
X01623Y00661*
X01622Y00659*
X01622Y00658*
X01622Y00657*
X01622Y00655*
X01621Y00654*
X01621Y00653*
X02428Y00332D02*
D01*
X02451Y00357*
X02472Y00383*
X02491Y0041*
X02508Y00439*
X02523Y00468*
X02536Y00499*
X02547Y00531*
X02556Y00563*
X02562Y00596*
X02566Y00629*
X02568Y00656*
X01724Y00671D02*
D01*
X01723Y00672*
X01723Y00672*
X01723Y00672*
X01722Y00672*
X01722Y00672*
X01722Y00673*
X01721Y00673*
X01721Y00673*
X01721Y00673*
X0172Y00673*
X0172Y00673*
X0172Y00673*
X02308Y00325D02*
D01*
X02308Y00325*
X02308Y00325*
X02309Y00325*
X02309Y00325*
X02309Y00325*
X02437Y00471D02*
D01*
X02436Y0047*
X02435Y00469*
X02454Y00676D02*
X02548D01*
X01719Y00673D02*
X0172D01*
X01641D02*
X01719D01*
X02437Y00471D02*
X02454Y00476D01*
X02289Y00318D02*
X02308Y00325D01*
X02309Y00325D02*
X02435Y00469D01*
X0183Y00739D02*
X01884D01*
X01819Y00583D02*
Y00728D01*
X0183Y00739*
X01807Y00571D02*
X01819Y00583D01*
X01724Y00571D02*
X01807D01*
X02294Y01009D02*
X02421D01*
X02454Y00876D02*
Y00976D01*
X02421Y01009D02*
X02454Y00976D01*
X02204Y01009D02*
X02294D01*
X01884Y00988D02*
X01893Y00979D01*
X0206*
X02Y00361D02*
X0206D01*
X01879Y00471D02*
X01977D01*
X01989Y0046*
Y00373D02*
Y0046D01*
Y00373D02*
X02Y00361D01*
X02144Y00326D02*
X02289D01*
Y00318D02*
Y00326D01*
X0206Y00361D02*
Y00364D01*
X02204Y00941D02*
Y01009D01*
X02144Y00941D02*
X02204D01*
X01987Y00739D02*
X01999Y00728D01*
Y00713D02*
X0201Y00701D01*
X01999Y00713D02*
Y00728D01*
X02045Y00701D02*
X02048Y00699D01*
X01879Y00739D02*
X01987D01*
X0201Y00701D02*
X02045D01*
X02048Y00699D02*
X0206D01*
X02144Y00656D02*
X02204D01*
Y00613D02*
X02289D01*
X02144Y00656D02*
Y00661D01*
X02204Y00613D02*
Y00656D01*
X02444Y00776D02*
X02454D01*
X02411Y00613D02*
X02448Y00576D01*
X02289Y00613D02*
X02411D01*
X02448Y00576D02*
X02454D01*
X01724Y00471D02*
X01879D01*
X01724Y00871D02*
X01826Y00974D01*
X01869*
X01884Y00988*
X0115Y01837D02*
D01*
X0115Y01839*
X0115Y0184*
X0115Y01841*
X0115Y01843*
X01149Y01844*
X01149Y01845*
X01148Y01846*
X01148Y01848*
X01147Y01849*
X01146Y0185*
X01145Y01851*
X01144Y01852*
X01143Y01853*
X01142Y01854*
X01141Y01854*
X0114Y01855*
X01138Y01856*
X01137Y01856*
X01136Y01857*
X01135Y01857*
X01133Y01857*
X01132Y01857*
X01131Y01857*
X00204Y01834D02*
D01*
X00206Y01801*
X00211Y01768*
X00217Y01736*
X00226Y01704*
X00237Y01673*
X0025Y01643*
X00266Y01614*
X00283Y01586*
X00302Y01559*
X00323Y01533*
X00346Y0151*
X0037Y01487*
X00396Y01467*
X00424Y01448*
X00452Y01432*
X00482Y01417*
X00512Y01404*
X00543Y01394*
X00575Y01386*
X00608Y0138*
X00641Y01376*
X00673Y01375*
X00706Y01376*
X00739Y01379*
X00772Y01385*
X00804Y01392*
X00835Y01402*
X00866Y01415*
X00896Y01429*
X00924Y01445*
X00952Y01464*
X00978Y01484*
X01002Y01506*
X0101Y01513*
X00224Y01854D02*
D01*
X00222Y01854*
X00221Y01854*
X0022Y01854*
X00218Y01853*
X00217Y01853*
X00216Y01852*
X00215Y01852*
X00213Y01851*
X00212Y0185*
X00211Y01849*
X0021Y01848*
X00209Y01847*
X00208Y01846*
X00207Y01845*
X00207Y01844*
X00206Y01843*
X00206Y01842*
X00205Y0184*
X00205Y01839*
X00204Y01838*
X00204Y01836*
X00204Y01835*
X00204Y01834*
X0101Y01513D02*
D01*
X01033Y01538*
X01054Y01564*
X01073Y01591*
X01091Y0162*
X01106Y01649*
X01119Y0168*
X0113Y01712*
X01138Y01744*
X01145Y01777*
X01149Y0181*
X0115Y01837*
X00306Y01852D02*
D01*
X00306Y01853*
X00306Y01853*
X00305Y01853*
X00305Y01853*
X00305Y01853*
X00304Y01854*
X00304Y01854*
X00304Y01854*
X00303Y01854*
X00303Y01854*
X00303Y01854*
X00303Y01854*
X00891Y01506D02*
D01*
X00891Y01506*
X00891Y01506*
X00891Y01506*
X00891Y01506*
X00891Y01506*
X01019Y01652D02*
D01*
X01018Y01651*
X01017Y0165*
X01036Y01857D02*
X01131D01*
X00301Y01854D02*
X00303D01*
X00224D02*
X00301D01*
X01019Y01652D02*
X01036Y01657D01*
X00871Y015D02*
X00891Y01506D01*
X00891Y01506D02*
X01017Y0165D01*
X00413Y0192D02*
X00466D01*
X00401Y01764D02*
Y01909D01*
X00413Y0192*
X0039Y01752D02*
X00401Y01764D01*
X00306Y01752D02*
X0039D01*
X00876Y0219D02*
X01003D01*
X01036Y02057D02*
Y02157D01*
X01003Y0219D02*
X01036Y02157D01*
X00786Y0219D02*
X00876D01*
X00466Y0217D02*
X00476Y0216D01*
X00643*
X00583Y01542D02*
X00643D01*
X00461Y01652D02*
X0056D01*
X00571Y01641*
Y01554D02*
Y01641D01*
Y01554D02*
X00583Y01542D01*
X00726Y01507D02*
X00871D01*
Y015D02*
Y01507D01*
X00643Y01542D02*
Y01545D01*
X00786Y02122D02*
Y0219D01*
X00726Y02122D02*
X00786D01*
X0057Y0192D02*
X00581Y01909D01*
Y01894D02*
X00593Y01882D01*
X00581Y01894D02*
Y01909D01*
X00628Y01882D02*
X0063Y0188D01*
X00461Y0192D02*
X0057D01*
X00593Y01882D02*
X00628D01*
X0063Y0188D02*
X00643D01*
X00726Y01837D02*
X00786D01*
Y01795D02*
X00871D01*
X00726Y01837D02*
Y01842D01*
X00786Y01795D02*
Y01837D01*
X01027Y01957D02*
X01036D01*
X00994Y01795D02*
X01031Y01757D01*
X00871Y01795D02*
X00994D01*
X01031Y01757D02*
X01036D01*
X00306Y01652D02*
X00461D01*
X00306Y02052D02*
X00409Y02155D01*
X00452*
X00466Y0217*
X02568Y01837D02*
D01*
X02568Y01839*
X02567Y0184*
X02567Y01841*
X02567Y01843*
X02567Y01844*
X02566Y01845*
X02566Y01846*
X02565Y01848*
X02564Y01849*
X02563Y0185*
X02562Y01851*
X02561Y01852*
X0256Y01853*
X02559Y01854*
X02558Y01854*
X02557Y01855*
X02556Y01856*
X02555Y01856*
X02553Y01857*
X02552Y01857*
X02551Y01857*
X02549Y01857*
X02548Y01857*
X01621Y01834D02*
D01*
X01624Y01801*
X01628Y01768*
X01635Y01736*
X01643Y01704*
X01655Y01673*
X01668Y01643*
X01683Y01614*
X017Y01586*
X0172Y01559*
X01741Y01533*
X01763Y0151*
X01788Y01487*
X01814Y01467*
X01841Y01448*
X01869Y01432*
X01899Y01417*
X01929Y01404*
X01961Y01394*
X01993Y01386*
X02025Y0138*
X02058Y01376*
X02091Y01375*
X02124Y01376*
X02157Y01379*
X02189Y01385*
X02221Y01392*
X02253Y01402*
X02283Y01415*
X02313Y01429*
X02342Y01445*
X02369Y01464*
X02395Y01484*
X0242Y01506*
X02428Y01513*
X01641Y01854D02*
D01*
X0164Y01854*
X01638Y01854*
X01637Y01854*
X01636Y01853*
X01634Y01853*
X01633Y01852*
X01632Y01852*
X01631Y01851*
X0163Y0185*
X01628Y01849*
X01627Y01848*
X01626Y01847*
X01626Y01846*
X01625Y01845*
X01624Y01844*
X01623Y01843*
X01623Y01842*
X01622Y0184*
X01622Y01839*
X01622Y01838*
X01622Y01836*
X01621Y01835*
X01621Y01834*
X02428Y01513D02*
D01*
X02451Y01538*
X02472Y01564*
X02491Y01591*
X02508Y0162*
X02523Y01649*
X02536Y0168*
X02547Y01712*
X02556Y01744*
X02562Y01777*
X02566Y0181*
X02568Y01837*
X01724Y01852D02*
D01*
X01723Y01853*
X01723Y01853*
X01723Y01853*
X01722Y01853*
X01722Y01853*
X01722Y01854*
X01721Y01854*
X01721Y01854*
X01721Y01854*
X0172Y01854*
X0172Y01854*
X0172Y01854*
X02308Y01506D02*
D01*
X02308Y01506*
X02308Y01506*
X02309Y01506*
X02309Y01506*
X02309Y01506*
X02309*
X02437Y01652D02*
D01*
X02436Y01651*
X02435Y0165*
X02454Y01857D02*
X02548D01*
X01719Y01854D02*
X0172D01*
X01641D02*
X01719D01*
X02437Y01652D02*
X02454Y01657D01*
X02289Y015D02*
X02308Y01506D01*
X02309Y01506D02*
X02435Y0165D01*
X0183Y0192D02*
X01884D01*
X01819Y01764D02*
Y01909D01*
X0183Y0192*
X01807Y01752D02*
X01819Y01764D01*
X01724Y01752D02*
X01807D01*
X02294Y0219D02*
X02421D01*
X02454Y02057D02*
Y02157D01*
X02421Y0219D02*
X02454Y02157D01*
X02204Y0219D02*
X02294D01*
X01884Y0217D02*
X01893Y0216D01*
X0206*
X02Y01542D02*
X0206D01*
X01879Y01652D02*
X01977D01*
X01989Y01641*
Y01554D02*
Y01641D01*
Y01554D02*
X02Y01542D01*
X02144Y01507D02*
X02289D01*
Y015D02*
Y01507D01*
X0206Y01542D02*
Y01545D01*
X02204Y02122D02*
Y0219D01*
X02144Y02122D02*
X02204D01*
X01987Y0192D02*
X01999Y01909D01*
Y01894D02*
X0201Y01882D01*
X01999Y01894D02*
Y01909D01*
X02045Y01882D02*
X02048Y0188D01*
X01879Y0192D02*
X01987D01*
X0201Y01882D02*
X02045D01*
X02048Y0188D02*
X0206D01*
X02144Y01837D02*
X02204D01*
Y01795D02*
X02289D01*
X02144Y01837D02*
Y01842D01*
X02204Y01795D02*
Y01837D01*
X02444Y01957D02*
X02454D01*
X02411Y01795D02*
X02448Y01757D01*
X02289Y01795D02*
X02411D01*
X02448Y01757D02*
X02454D01*
X01724Y01652D02*
X01879D01*
X01724Y02052D02*
X01826Y02155D01*
X01869*
X01884Y0217*
G54D14*
X00643Y00624D03*
X00726Y00661D03*
X00643Y00699D03*
Y00904D03*
X00726Y00941D03*
X00643Y00979D03*
Y00289D03*
X00726Y00326D03*
X00643Y00364D03*
X0206Y00624D03*
X02144Y00661D03*
X0206Y00699D03*
Y00904D03*
X02144Y00941D03*
X0206Y00979D03*
Y00289D03*
X02144Y00326D03*
X0206Y00364D03*
X00643Y01805D03*
X00726Y01842D03*
X00643Y0188D03*
Y02085D03*
X00726Y02122D03*
X00643Y0216D03*
Y0147D03*
X00726Y01507D03*
X00643Y01545D03*
X0206Y01805D03*
X02144Y01842D03*
X0206Y0188D03*
Y02085D03*
X02144Y02122D03*
X0206Y0216D03*
Y0147D03*
X02144Y01507D03*
X0206Y01545D03*
G54D15*
X00876Y01009D03*
Y00873D03*
X00871Y00613D03*
Y00749D03*
Y00318D03*
Y00454D03*
X00461Y00471D03*
Y00335D03*
X00466Y00988D03*
Y00853D03*
Y00739D03*
Y00603D03*
X02294Y01009D03*
Y00873D03*
X02289Y00613D03*
Y00749D03*
Y00318D03*
Y00454D03*
X01879Y00471D03*
Y00335D03*
X01884Y00988D03*
Y00853D03*
Y00739D03*
Y00603D03*
X00876Y0219D03*
Y02055D03*
X00871Y01795D03*
Y0193D03*
Y015D03*
Y01635D03*
X00461Y01652D03*
Y01517D03*
X00466Y0217D03*
Y02034D03*
Y0192D03*
Y01785D03*
X02294Y0219D03*
Y02055D03*
X02289Y01795D03*
Y0193D03*
Y015D03*
Y01635D03*
X01879Y01652D03*
Y01517D03*
X01884Y0217D03*
Y02034D03*
Y0192D03*
Y01785D03*
M02*