%FSTAX23Y23*%
%MOIN*%
%SFA1B1*%

%IPPOS*%
%ADD10C,0.010000*%
%ADD11R,0.053937X0.053937*%
%ADD12C,0.053937*%
%LNpcb2_copper_signal_top-1*%
%LPD*%
G36*
X02137Y02342D02*
X0218Y02337D01*
X02222Y02327*
X02264Y02314*
X02304Y02298*
X02342Y02278*
X02379Y02254*
X02413Y02228*
X02445Y02199*
X02474Y02167*
X02501Y02132*
X02524Y02096*
X02544Y02057*
X0256Y02017*
X02573Y01976*
X02583Y01934*
X02589Y01891*
X0259Y01847*
X02589Y01804*
X02583Y01761*
X02573Y01719*
X0256Y01678*
X02544Y01637*
X02524Y01599*
X02501Y01562*
X02474Y01528*
X02445Y01496*
X02413Y01467*
X02379Y0144*
X02342Y01417*
X02304Y01397*
X02264Y01381*
X02222Y01368*
X0218Y01358*
X02137Y01353*
X02094Y01351*
X0205Y01353*
X02007Y01358*
X01965Y01368*
X01924Y01381*
X01884Y01397*
X01845Y01417*
X01809Y0144*
X01774Y01467*
X01742Y01496*
X01713Y01528*
X01687Y01562*
X01663Y01599*
X01643Y01637*
X01627Y01678*
X01614Y01719*
X01604Y01761*
X01599Y01804*
X01597Y01847*
X01599Y01891*
X01604Y01934*
X01614Y01976*
X01627Y02017*
X01643Y02057*
X01663Y02096*
X01687Y02132*
X01713Y02167*
X01742Y02199*
X01774Y02228*
X01809Y02254*
X01845Y02278*
X01884Y02298*
X01924Y02314*
X01965Y02327*
X02007Y02337*
X0205Y02342*
X02094Y02344*
X02137Y02342*
G37*
G36*
X0072D02*
X00763Y02337D01*
X00805Y02327*
X00846Y02314*
X00886Y02298*
X00925Y02278*
X00961Y02254*
X00996Y02228*
X01028Y02199*
X01057Y02167*
X01083Y02132*
X01107Y02096*
X01127Y02057*
X01143Y02017*
X01156Y01976*
X01166Y01934*
X01171Y01891*
X01173Y01847*
X01171Y01804*
X01166Y01761*
X01156Y01719*
X01143Y01678*
X01127Y01637*
X01107Y01599*
X01083Y01562*
X01057Y01528*
X01028Y01496*
X00996Y01467*
X00961Y0144*
X00925Y01417*
X00886Y01397*
X00846Y01381*
X00805Y01368*
X00763Y01358*
X0072Y01353*
X00676Y01351*
X00633Y01353*
X0059Y01358*
X00548Y01368*
X00506Y01381*
X00466Y01397*
X00428Y01417*
X00391Y0144*
X00357Y01467*
X00325Y01496*
X00296Y01528*
X00269Y01562*
X00246Y01599*
X00226Y01637*
X00209Y01678*
X00196Y01719*
X00187Y01761*
X00181Y01804*
X0018Y01847*
X00181Y01891*
X00187Y01934*
X00196Y01976*
X00209Y02017*
X00226Y02057*
X00246Y02096*
X00269Y02132*
X00296Y02167*
X00325Y02199*
X00357Y02228*
X00391Y02254*
X00428Y02278*
X00466Y02298*
X00506Y02314*
X00548Y02327*
X0059Y02337*
X00633Y02342*
X00676Y02344*
X0072Y02342*
G37*
G36*
X02137Y01161D02*
X0218Y01156D01*
X02222Y01146*
X02264Y01133*
X02304Y01117*
X02342Y01097*
X02379Y01073*
X02413Y01047*
X02445Y01018*
X02474Y00986*
X02501Y00951*
X02524Y00915*
X02544Y00876*
X0256Y00836*
X02573Y00795*
X02583Y00753*
X02589Y0071*
X0259Y00666*
X02589Y00623*
X02583Y0058*
X02573Y00538*
X0256Y00496*
X02544Y00456*
X02524Y00418*
X02501Y00381*
X02474Y00347*
X02445Y00315*
X02413Y00286*
X02379Y00259*
X02342Y00236*
X02304Y00216*
X02264Y00199*
X02222Y00186*
X0218Y00177*
X02137Y00171*
X02094Y0017*
X0205Y00171*
X02007Y00177*
X01965Y00186*
X01924Y00199*
X01884Y00216*
X01845Y00236*
X01809Y00259*
X01774Y00286*
X01742Y00315*
X01713Y00347*
X01687Y00381*
X01663Y00418*
X01643Y00456*
X01627Y00496*
X01614Y00538*
X01604Y0058*
X01599Y00623*
X01597Y00666*
X01599Y0071*
X01604Y00753*
X01614Y00795*
X01627Y00836*
X01643Y00876*
X01663Y00915*
X01687Y00951*
X01713Y00986*
X01742Y01018*
X01774Y01047*
X01809Y01073*
X01845Y01097*
X01884Y01117*
X01924Y01133*
X01965Y01146*
X02007Y01156*
X0205Y01161*
X02094Y01163*
X02137Y01161*
G37*
G36*
X0072D02*
X00763Y01156D01*
X00805Y01146*
X00846Y01133*
X00886Y01117*
X00925Y01097*
X00961Y01073*
X00996Y01047*
X01028Y01018*
X01057Y00986*
X01083Y00951*
X01107Y00915*
X01127Y00876*
X01143Y00836*
X01156Y00795*
X01166Y00753*
X01171Y0071*
X01173Y00666*
X01171Y00623*
X01166Y0058*
X01156Y00538*
X01143Y00496*
X01127Y00456*
X01107Y00418*
X01083Y00381*
X01057Y00347*
X01028Y00315*
X00996Y00286*
X00961Y00259*
X00925Y00236*
X00886Y00216*
X00846Y00199*
X00805Y00186*
X00763Y00177*
X0072Y00171*
X00676Y0017*
X00633Y00171*
X0059Y00177*
X00548Y00186*
X00506Y00199*
X00466Y00216*
X00428Y00236*
X00391Y00259*
X00357Y00286*
X00325Y00315*
X00296Y00347*
X00269Y00381*
X00246Y00418*
X00226Y00456*
X00209Y00496*
X00196Y00538*
X00187Y0058*
X00181Y00623*
X0018Y00666*
X00181Y0071*
X00187Y00753*
X00196Y00795*
X00209Y00836*
X00226Y00876*
X00246Y00915*
X00269Y00951*
X00296Y00986*
X00325Y01018*
X00357Y01047*
X00391Y01073*
X00428Y01097*
X00466Y01117*
X00506Y01133*
X00548Y01146*
X0059Y01156*
X00633Y01161*
X00676Y01163*
X0072Y01161*
G37*
%LNpcb2_copper_signal_top-2*%
%LPC*%
G36*
X02459Y02094D02*
X02449D01*
X02439Y02092*
X02431Y02087*
X02424Y0208*
X02419Y02072*
X02417Y02062*
Y02053*
X02419Y02043*
X02424Y02035*
X02431Y02028*
X02439Y02023*
X02449Y0202*
X02459*
X02468Y02023*
X02476Y02028*
X02483Y02035*
X02488Y02043*
X02491Y02053*
Y02062*
X02488Y02072*
X02483Y0208*
X02476Y02087*
X02468Y02092*
X02459Y02094*
G37*
G36*
X01761Y02089D02*
X01687D01*
Y02015*
X01761*
Y02089*
G37*
G36*
X02459Y01994D02*
X02449D01*
X02439Y01992*
X02431Y01987*
X02424Y0198*
X02419Y01972*
X02417Y01962*
Y01953*
X02419Y01943*
X02424Y01935*
X02431Y01928*
X02439Y01923*
X02449Y0192*
X02459*
X02468Y01923*
X02476Y01928*
X02483Y01935*
X02488Y01943*
X02491Y01953*
Y01962*
X02488Y01972*
X02483Y0198*
X02476Y01987*
X02468Y01992*
X02459Y01994*
G37*
G36*
X01729Y01989D02*
X01719D01*
X01709Y01987*
X01701Y01982*
X01694Y01975*
X01689Y01967*
X01687Y01957*
Y01948*
X01689Y01938*
X01694Y0193*
X01701Y01923*
X01709Y01918*
X01719Y01915*
X01729*
X01738Y01918*
X01746Y01923*
X01753Y0193*
X01758Y01938*
X01761Y01948*
Y01957*
X01758Y01967*
X01753Y01975*
X01746Y01982*
X01738Y01987*
X01729Y01989*
G37*
G36*
X02459Y01894D02*
X02449D01*
X02439Y01892*
X02431Y01887*
X02424Y0188*
X02419Y01872*
X02417Y01862*
Y01853*
X02419Y01843*
X02424Y01835*
X02431Y01828*
X02439Y01823*
X02449Y0182*
X02459*
X02468Y01823*
X02476Y01828*
X02483Y01835*
X02488Y01843*
X02491Y01853*
Y01862*
X02488Y01872*
X02483Y0188*
X02476Y01887*
X02468Y01892*
X02459Y01894*
G37*
G36*
X01729Y01889D02*
X01719D01*
X01709Y01887*
X01701Y01882*
X01694Y01875*
X01689Y01867*
X01687Y01857*
Y01848*
X01689Y01838*
X01694Y0183*
X01701Y01823*
X01709Y01818*
X01719Y01815*
X01729*
X01738Y01818*
X01746Y01823*
X01753Y0183*
X01758Y01838*
X01761Y01848*
Y01857*
X01758Y01867*
X01753Y01875*
X01746Y01882*
X01738Y01887*
X01729Y01889*
G37*
G36*
X02459Y01794D02*
X02449D01*
X02439Y01792*
X02431Y01787*
X02424Y0178*
X02419Y01772*
X02417Y01762*
Y01753*
X02419Y01743*
X02424Y01735*
X02431Y01728*
X02439Y01723*
X02449Y0172*
X02459*
X02468Y01723*
X02476Y01728*
X02483Y01735*
X02488Y01743*
X02491Y01753*
Y01762*
X02488Y01772*
X02483Y0178*
X02476Y01787*
X02468Y01792*
X02459Y01794*
G37*
G36*
X01729Y01789D02*
X01719D01*
X01709Y01787*
X01701Y01782*
X01694Y01775*
X01689Y01767*
X01687Y01757*
Y01748*
X01689Y01738*
X01694Y0173*
X01701Y01723*
X01709Y01718*
X01719Y01715*
X01729*
X01738Y01718*
X01746Y01723*
X01753Y0173*
X01758Y01738*
X01761Y01748*
Y01757*
X01758Y01767*
X01753Y01775*
X01746Y01782*
X01738Y01787*
X01729Y01789*
G37*
G36*
X02491Y01694D02*
X02417D01*
Y0162*
X02491*
Y01694*
G37*
G36*
X01729Y01689D02*
X01719D01*
X01709Y01687*
X01701Y01682*
X01694Y01675*
X01689Y01667*
X01687Y01657*
Y01648*
X01689Y01638*
X01694Y0163*
X01701Y01623*
X01709Y01618*
X01719Y01615*
X01729*
X01738Y01618*
X01746Y01623*
X01753Y0163*
X01758Y01638*
X01761Y01648*
Y01657*
X01758Y01667*
X01753Y01675*
X01746Y01682*
X01738Y01687*
X01729Y01689*
G37*
G36*
X01041Y02094D02*
X01031D01*
X01022Y02092*
X01014Y02087*
X01007Y0208*
X01002Y02072*
X00999Y02062*
Y02053*
X01002Y02043*
X01007Y02035*
X01014Y02028*
X01022Y02023*
X01031Y0202*
X01041*
X01051Y02023*
X01059Y02028*
X01066Y02035*
X01071Y02043*
X01073Y02053*
Y02062*
X01071Y02072*
X01066Y0208*
X01059Y02087*
X01051Y02092*
X01041Y02094*
G37*
G36*
X00343Y02089D02*
X00269D01*
Y02015*
X00343*
Y02089*
G37*
G36*
X01041Y01994D02*
X01031D01*
X01022Y01992*
X01014Y01987*
X01007Y0198*
X01002Y01972*
X00999Y01962*
Y01953*
X01002Y01943*
X01007Y01935*
X01014Y01928*
X01022Y01923*
X01031Y0192*
X01041*
X01051Y01923*
X01059Y01928*
X01066Y01935*
X01071Y01943*
X01073Y01953*
Y01962*
X01071Y01972*
X01066Y0198*
X01059Y01987*
X01051Y01992*
X01041Y01994*
G37*
G36*
X00311Y01989D02*
X00301D01*
X00292Y01987*
X00284Y01982*
X00277Y01975*
X00272Y01967*
X00269Y01957*
Y01948*
X00272Y01938*
X00277Y0193*
X00284Y01923*
X00292Y01918*
X00301Y01915*
X00311*
X00321Y01918*
X00329Y01923*
X00336Y0193*
X00341Y01938*
X00343Y01948*
Y01957*
X00341Y01967*
X00336Y01975*
X00329Y01982*
X00321Y01987*
X00311Y01989*
G37*
G36*
X01041Y01894D02*
X01031D01*
X01022Y01892*
X01014Y01887*
X01007Y0188*
X01002Y01872*
X00999Y01862*
Y01853*
X01002Y01843*
X01007Y01835*
X01014Y01828*
X01022Y01823*
X01031Y0182*
X01041*
X01051Y01823*
X01059Y01828*
X01066Y01835*
X01071Y01843*
X01073Y01853*
Y01862*
X01071Y01872*
X01066Y0188*
X01059Y01887*
X01051Y01892*
X01041Y01894*
G37*
G36*
X00311Y01889D02*
X00301D01*
X00292Y01887*
X00284Y01882*
X00277Y01875*
X00272Y01867*
X00269Y01857*
Y01848*
X00272Y01838*
X00277Y0183*
X00284Y01823*
X00292Y01818*
X00301Y01815*
X00311*
X00321Y01818*
X00329Y01823*
X00336Y0183*
X00341Y01838*
X00343Y01848*
Y01857*
X00341Y01867*
X00336Y01875*
X00329Y01882*
X00321Y01887*
X00311Y01889*
G37*
G36*
X01041Y01794D02*
X01031D01*
X01022Y01792*
X01014Y01787*
X01007Y0178*
X01002Y01772*
X00999Y01762*
Y01753*
X01002Y01743*
X01007Y01735*
X01014Y01728*
X01022Y01723*
X01031Y0172*
X01041*
X01051Y01723*
X01059Y01728*
X01066Y01735*
X01071Y01743*
X01073Y01753*
Y01762*
X01071Y01772*
X01066Y0178*
X01059Y01787*
X01051Y01792*
X01041Y01794*
G37*
G36*
X00311Y01789D02*
X00301D01*
X00292Y01787*
X00284Y01782*
X00277Y01775*
X00272Y01767*
X00269Y01757*
Y01748*
X00272Y01738*
X00277Y0173*
X00284Y01723*
X00292Y01718*
X00301Y01715*
X00311*
X00321Y01718*
X00329Y01723*
X00336Y0173*
X00341Y01738*
X00343Y01748*
Y01757*
X00341Y01767*
X00336Y01775*
X00329Y01782*
X00321Y01787*
X00311Y01789*
G37*
G36*
X01073Y01694D02*
X00999D01*
Y0162*
X01073*
Y01694*
G37*
G36*
X00311Y01689D02*
X00301D01*
X00292Y01687*
X00284Y01682*
X00277Y01675*
X00272Y01667*
X00269Y01657*
Y01648*
X00272Y01638*
X00277Y0163*
X00284Y01623*
X00292Y01618*
X00301Y01615*
X00311*
X00321Y01618*
X00329Y01623*
X00336Y0163*
X00341Y01638*
X00343Y01648*
Y01657*
X00341Y01667*
X00336Y01675*
X00329Y01682*
X00321Y01687*
X00311Y01689*
G37*
G36*
X02459Y00913D02*
X02449D01*
X02439Y00911*
X02431Y00906*
X02424Y00899*
X02419Y00891*
X02417Y00881*
Y00871*
X02419Y00862*
X02424Y00854*
X02431Y00847*
X02439Y00842*
X02449Y00839*
X02459*
X02468Y00842*
X02476Y00847*
X02483Y00854*
X02488Y00862*
X02491Y00871*
Y00881*
X02488Y00891*
X02483Y00899*
X02476Y00906*
X02468Y00911*
X02459Y00913*
G37*
G36*
X01761Y00908D02*
X01687D01*
Y00834*
X01761*
Y00908*
G37*
G36*
X02459Y00813D02*
X02449D01*
X02439Y00811*
X02431Y00806*
X02424Y00799*
X02419Y00791*
X02417Y00781*
Y00771*
X02419Y00762*
X02424Y00754*
X02431Y00747*
X02439Y00742*
X02449Y00739*
X02459*
X02468Y00742*
X02476Y00747*
X02483Y00754*
X02488Y00762*
X02491Y00771*
Y00781*
X02488Y00791*
X02483Y00799*
X02476Y00806*
X02468Y00811*
X02459Y00813*
G37*
G36*
X01729Y00808D02*
X01719D01*
X01709Y00806*
X01701Y00801*
X01694Y00794*
X01689Y00786*
X01687Y00776*
Y00766*
X01689Y00757*
X01694Y00749*
X01701Y00742*
X01709Y00737*
X01719Y00734*
X01729*
X01738Y00737*
X01746Y00742*
X01753Y00749*
X01758Y00757*
X01761Y00766*
Y00776*
X01758Y00786*
X01753Y00794*
X01746Y00801*
X01738Y00806*
X01729Y00808*
G37*
G36*
X02459Y00713D02*
X02449D01*
X02439Y00711*
X02431Y00706*
X02424Y00699*
X02419Y00691*
X02417Y00681*
Y00671*
X02419Y00662*
X02424Y00654*
X02431Y00647*
X02439Y00642*
X02449Y00639*
X02459*
X02468Y00642*
X02476Y00647*
X02483Y00654*
X02488Y00662*
X02491Y00671*
Y00681*
X02488Y00691*
X02483Y00699*
X02476Y00706*
X02468Y00711*
X02459Y00713*
G37*
G36*
X01729Y00708D02*
X01719D01*
X01709Y00706*
X01701Y00701*
X01694Y00694*
X01689Y00686*
X01687Y00676*
Y00666*
X01689Y00657*
X01694Y00649*
X01701Y00642*
X01709Y00637*
X01719Y00634*
X01729*
X01738Y00637*
X01746Y00642*
X01753Y00649*
X01758Y00657*
X01761Y00666*
Y00676*
X01758Y00686*
X01753Y00694*
X01746Y00701*
X01738Y00706*
X01729Y00708*
G37*
G36*
X02459Y00613D02*
X02449D01*
X02439Y00611*
X02431Y00606*
X02424Y00599*
X02419Y00591*
X02417Y00581*
Y00571*
X02419Y00562*
X02424Y00554*
X02431Y00547*
X02439Y00542*
X02449Y00539*
X02459*
X02468Y00542*
X02476Y00547*
X02483Y00554*
X02488Y00562*
X02491Y00571*
Y00581*
X02488Y00591*
X02483Y00599*
X02476Y00606*
X02468Y00611*
X02459Y00613*
G37*
G36*
X01729Y00608D02*
X01719D01*
X01709Y00606*
X01701Y00601*
X01694Y00594*
X01689Y00586*
X01687Y00576*
Y00566*
X01689Y00557*
X01694Y00549*
X01701Y00542*
X01709Y00537*
X01719Y00534*
X01729*
X01738Y00537*
X01746Y00542*
X01753Y00549*
X01758Y00557*
X01761Y00566*
Y00576*
X01758Y00586*
X01753Y00594*
X01746Y00601*
X01738Y00606*
X01729Y00608*
G37*
G36*
X02491Y00513D02*
X02417D01*
Y00439*
X02491*
Y00513*
G37*
G36*
X01729Y00508D02*
X01719D01*
X01709Y00506*
X01701Y00501*
X01694Y00494*
X01689Y00486*
X01687Y00476*
Y00466*
X01689Y00457*
X01694Y00449*
X01701Y00442*
X01709Y00437*
X01719Y00434*
X01729*
X01738Y00437*
X01746Y00442*
X01753Y00449*
X01758Y00457*
X01761Y00466*
Y00476*
X01758Y00486*
X01753Y00494*
X01746Y00501*
X01738Y00506*
X01729Y00508*
G37*
G36*
X01041Y00913D02*
X01031D01*
X01022Y00911*
X01014Y00906*
X01007Y00899*
X01002Y00891*
X00999Y00881*
Y00871*
X01002Y00862*
X01007Y00854*
X01014Y00847*
X01022Y00842*
X01031Y00839*
X01041*
X01051Y00842*
X01059Y00847*
X01066Y00854*
X01071Y00862*
X01073Y00871*
Y00881*
X01071Y00891*
X01066Y00899*
X01059Y00906*
X01051Y00911*
X01041Y00913*
G37*
G36*
X00343Y00908D02*
X00269D01*
Y00834*
X00343*
Y00908*
G37*
G36*
X01041Y00813D02*
X01031D01*
X01022Y00811*
X01014Y00806*
X01007Y00799*
X01002Y00791*
X00999Y00781*
Y00771*
X01002Y00762*
X01007Y00754*
X01014Y00747*
X01022Y00742*
X01031Y00739*
X01041*
X01051Y00742*
X01059Y00747*
X01066Y00754*
X01071Y00762*
X01073Y00771*
Y00781*
X01071Y00791*
X01066Y00799*
X01059Y00806*
X01051Y00811*
X01041Y00813*
G37*
G36*
X00311Y00808D02*
X00301D01*
X00292Y00806*
X00284Y00801*
X00277Y00794*
X00272Y00786*
X00269Y00776*
Y00766*
X00272Y00757*
X00277Y00749*
X00284Y00742*
X00292Y00737*
X00301Y00734*
X00311*
X00321Y00737*
X00329Y00742*
X00336Y00749*
X00341Y00757*
X00343Y00766*
Y00776*
X00341Y00786*
X00336Y00794*
X00329Y00801*
X00321Y00806*
X00311Y00808*
G37*
G36*
X01041Y00713D02*
X01031D01*
X01022Y00711*
X01014Y00706*
X01007Y00699*
X01002Y00691*
X00999Y00681*
Y00671*
X01002Y00662*
X01007Y00654*
X01014Y00647*
X01022Y00642*
X01031Y00639*
X01041*
X01051Y00642*
X01059Y00647*
X01066Y00654*
X01071Y00662*
X01073Y00671*
Y00681*
X01071Y00691*
X01066Y00699*
X01059Y00706*
X01051Y00711*
X01041Y00713*
G37*
G36*
X00311Y00708D02*
X00301D01*
X00292Y00706*
X00284Y00701*
X00277Y00694*
X00272Y00686*
X00269Y00676*
Y00666*
X00272Y00657*
X00277Y00649*
X00284Y00642*
X00292Y00637*
X00301Y00634*
X00311*
X00321Y00637*
X00329Y00642*
X00336Y00649*
X00341Y00657*
X00343Y00666*
Y00676*
X00341Y00686*
X00336Y00694*
X00329Y00701*
X00321Y00706*
X00311Y00708*
G37*
G36*
X01041Y00613D02*
X01031D01*
X01022Y00611*
X01014Y00606*
X01007Y00599*
X01002Y00591*
X00999Y00581*
Y00571*
X01002Y00562*
X01007Y00554*
X01014Y00547*
X01022Y00542*
X01031Y00539*
X01041*
X01051Y00542*
X01059Y00547*
X01066Y00554*
X01071Y00562*
X01073Y00571*
Y00581*
X01071Y00591*
X01066Y00599*
X01059Y00606*
X01051Y00611*
X01041Y00613*
G37*
G36*
X00311Y00608D02*
X00301D01*
X00292Y00606*
X00284Y00601*
X00277Y00594*
X00272Y00586*
X00269Y00576*
Y00566*
X00272Y00557*
X00277Y00549*
X00284Y00542*
X00292Y00537*
X00301Y00534*
X00311*
X00321Y00537*
X00329Y00542*
X00336Y00549*
X00341Y00557*
X00343Y00566*
Y00576*
X00341Y00586*
X00336Y00594*
X00329Y00601*
X00321Y00606*
X00311Y00608*
G37*
G36*
X01073Y00513D02*
X00999D01*
Y00439*
X01073*
Y00513*
G37*
G36*
X00311Y00508D02*
X00301D01*
X00292Y00506*
X00284Y00501*
X00277Y00494*
X00272Y00486*
X00269Y00476*
Y00466*
X00272Y00457*
X00277Y00449*
X00284Y00442*
X00292Y00437*
X00301Y00434*
X00311*
X00321Y00437*
X00329Y00442*
X00336Y00449*
X00341Y00457*
X00343Y00466*
Y00476*
X00341Y00486*
X00336Y00494*
X00329Y00501*
X00321Y00506*
X00311Y00508*
G37*
%LNpcb2_copper_signal_top-3*%
%LPD*%
G54D10*
X0Y0D02*
X02875D01*
X0Y0259D02*
X02875D01*
Y0D02*
Y0259D01*
X0Y0D02*
Y0259D01*
X01188Y00666D02*
D01*
X01187Y00702*
X01183Y00738*
X01177Y00773*
X01168Y00807*
X01157Y00841*
X01144Y00874*
X01128Y00907*
X0111Y00938*
X0109Y00967*
X01068Y00995*
X01044Y01022*
X01019Y01047*
X00991Y0107*
X00963Y01091*
X00932Y0111*
X00901Y01126*
X00868Y01141*
X00834Y01153*
X008Y01163*
X00765Y0117*
X0073Y01175*
X00694Y01178*
X00658*
X00623Y01175*
X00587Y0117*
X00552Y01163*
X00518Y01153*
X00485Y01141*
X00452Y01126*
X0042Y0111*
X0039Y01091*
X00361Y0107*
X00334Y01047*
X00308Y01022*
X00284Y00995*
X00262Y00967*
X00242Y00938*
X00224Y00907*
X00209Y00874*
X00195Y00841*
X00184Y00807*
X00176Y00773*
X00169Y00738*
X00166Y00702*
X00165Y00666*
X00166Y00631*
X00169Y00595*
X00176Y0056*
X00184Y00525*
X00195Y00491*
X00209Y00458*
X00224Y00426*
X00242Y00395*
X00262Y00365*
X00284Y00337*
X00308Y00311*
X00334Y00286*
X00361Y00263*
X0039Y00242*
X0042Y00223*
X00452Y00206*
X00485Y00192*
X00518Y0018*
X00552Y0017*
X00587Y00162*
X00623Y00157*
X00658Y00155*
X00694*
X0073Y00157*
X00765Y00162*
X008Y0017*
X00834Y0018*
X00868Y00192*
X00901Y00206*
X00932Y00223*
X00963Y00242*
X00991Y00263*
X01019Y00286*
X01044Y00311*
X01068Y00337*
X0109Y00365*
X0111Y00395*
X01128Y00426*
X01144Y00458*
X01157Y00491*
X01168Y00525*
X01177Y0056*
X01183Y00595*
X01187Y00631*
X01188Y00666*
X02605D02*
D01*
X02604Y00702*
X026Y00738*
X02594Y00773*
X02586Y00807*
X02575Y00841*
X02561Y00874*
X02546Y00907*
X02528Y00938*
X02508Y00967*
X02486Y00995*
X02462Y01022*
X02436Y01047*
X02409Y0107*
X0238Y01091*
X0235Y0111*
X02318Y01126*
X02285Y01141*
X02252Y01153*
X02217Y01163*
X02183Y0117*
X02147Y01175*
X02111Y01178*
X02076*
X0204Y01175*
X02005Y0117*
X0197Y01163*
X01935Y01153*
X01902Y01141*
X01869Y01126*
X01838Y0111*
X01807Y01091*
X01779Y0107*
X01751Y01047*
X01725Y01022*
X01702Y00995*
X0168Y00967*
X0166Y00938*
X01642Y00907*
X01626Y00874*
X01613Y00841*
X01602Y00807*
X01593Y00773*
X01587Y00738*
X01583Y00702*
X01582Y00666*
X01583Y00631*
X01587Y00595*
X01593Y0056*
X01602Y00525*
X01613Y00491*
X01626Y00458*
X01642Y00426*
X0166Y00395*
X0168Y00365*
X01702Y00337*
X01725Y00311*
X01751Y00286*
X01779Y00263*
X01807Y00242*
X01838Y00223*
X01869Y00206*
X01902Y00192*
X01935Y0018*
X0197Y0017*
X02005Y00162*
X0204Y00157*
X02076Y00155*
X02111*
X02147Y00157*
X02183Y00162*
X02217Y0017*
X02252Y0018*
X02285Y00192*
X02318Y00206*
X0235Y00223*
X0238Y00242*
X02409Y00263*
X02436Y00286*
X02462Y00311*
X02486Y00337*
X02508Y00365*
X02528Y00395*
X02546Y00426*
X02561Y00458*
X02575Y00491*
X02586Y00525*
X02594Y0056*
X026Y00595*
X02604Y00631*
X02605Y00666*
X01188Y01847D02*
D01*
X01187Y01883*
X01183Y01919*
X01177Y01954*
X01168Y01988*
X01157Y02022*
X01144Y02056*
X01128Y02088*
X0111Y02119*
X0109Y02148*
X01068Y02176*
X01044Y02203*
X01019Y02228*
X00991Y02251*
X00963Y02272*
X00932Y02291*
X00901Y02307*
X00868Y02322*
X00834Y02334*
X008Y02344*
X00765Y02351*
X0073Y02356*
X00694Y02359*
X00658*
X00623Y02356*
X00587Y02351*
X00552Y02344*
X00518Y02334*
X00485Y02322*
X00452Y02307*
X0042Y02291*
X0039Y02272*
X00361Y02251*
X00334Y02228*
X00308Y02203*
X00284Y02176*
X00262Y02148*
X00242Y02119*
X00224Y02088*
X00209Y02056*
X00195Y02022*
X00184Y01988*
X00176Y01954*
X00169Y01919*
X00166Y01883*
X00165Y01847*
X00166Y01812*
X00169Y01776*
X00176Y01741*
X00184Y01706*
X00195Y01672*
X00209Y01639*
X00224Y01607*
X00242Y01576*
X00262Y01547*
X00284Y01518*
X00308Y01492*
X00334Y01467*
X00361Y01444*
X0039Y01423*
X0042Y01404*
X00452Y01387*
X00485Y01373*
X00518Y01361*
X00552Y01351*
X00587Y01343*
X00623Y01338*
X00658Y01336*
X00694*
X0073Y01338*
X00765Y01343*
X008Y01351*
X00834Y01361*
X00868Y01373*
X00901Y01387*
X00932Y01404*
X00963Y01423*
X00991Y01444*
X01019Y01467*
X01044Y01492*
X01068Y01518*
X0109Y01547*
X0111Y01576*
X01128Y01607*
X01144Y01639*
X01157Y01672*
X01168Y01706*
X01177Y01741*
X01183Y01776*
X01187Y01812*
X01188Y01847*
X02605D02*
D01*
X02604Y01883*
X026Y01919*
X02594Y01954*
X02586Y01988*
X02575Y02022*
X02561Y02056*
X02546Y02088*
X02528Y02119*
X02508Y02148*
X02486Y02176*
X02462Y02203*
X02436Y02228*
X02409Y02251*
X0238Y02272*
X0235Y02291*
X02318Y02307*
X02285Y02322*
X02252Y02334*
X02217Y02344*
X02183Y02351*
X02147Y02356*
X02111Y02359*
X02076*
X0204Y02356*
X02005Y02351*
X0197Y02344*
X01935Y02334*
X01902Y02322*
X01869Y02307*
X01838Y02291*
X01807Y02272*
X01779Y02251*
X01751Y02228*
X01725Y02203*
X01702Y02176*
X0168Y02148*
X0166Y02119*
X01642Y02088*
X01626Y02056*
X01613Y02022*
X01602Y01988*
X01593Y01954*
X01587Y01919*
X01583Y01883*
X01582Y01847*
X01583Y01812*
X01587Y01776*
X01593Y01741*
X01602Y01706*
X01613Y01672*
X01626Y01639*
X01642Y01607*
X0166Y01576*
X0168Y01547*
X01702Y01518*
X01725Y01492*
X01751Y01467*
X01779Y01444*
X01807Y01423*
X01838Y01404*
X01869Y01387*
X01902Y01373*
X01935Y01361*
X0197Y01351*
X02005Y01343*
X0204Y01338*
X02076Y01336*
X02111*
X02147Y01338*
X02183Y01343*
X02217Y01351*
X02252Y01361*
X02285Y01373*
X02318Y01387*
X0235Y01404*
X0238Y01423*
X02409Y01444*
X02436Y01467*
X02462Y01492*
X02486Y01518*
X02508Y01547*
X02528Y01576*
X02546Y01607*
X02561Y01639*
X02575Y01672*
X02586Y01706*
X02594Y01741*
X026Y01776*
X02604Y01812*
X02605Y01847*
G54D11*
X01036Y00476D03*
X00306Y00871D03*
X02454Y00476D03*
X01724Y00871D03*
X01036Y01657D03*
X00306Y02052D03*
X02454Y01657D03*
X01724Y02052D03*
G54D12*
X01036Y00576D03*
Y00676D03*
Y00776D03*
Y00876D03*
X00306Y00771D03*
Y00671D03*
Y00571D03*
Y00471D03*
X02454Y00576D03*
Y00676D03*
Y00776D03*
Y00876D03*
X01724Y00771D03*
Y00671D03*
Y00571D03*
Y00471D03*
X01036Y01757D03*
Y01857D03*
Y01957D03*
Y02057D03*
X00306Y01952D03*
Y01852D03*
Y01752D03*
Y01652D03*
X02454Y01757D03*
Y01857D03*
Y01957D03*
Y02057D03*
X01724Y01952D03*
Y01852D03*
Y01752D03*
Y01652D03*
M02*