M48
;Layer_Color=9474304
;FILE_FORMAT=4:4
METRIC,LZ
;TYPE=PLATED
T1F00S00C1.0200
%
T01
X0007793Y0011984
X0026335Y0012111
X0043793Y0011984
X0062335Y0012111
Y0014651
Y0017191
Y0019731
Y0022271
Y0042111
Y0044651
Y0047191
Y0049731
Y0052271
X0043793Y0052144
Y0049604
Y0047064
Y0044524
Y0041984
X0026335Y0042111
Y0044651
Y0047191
Y0049731
Y0052271
Y0022271
Y0019731
Y0017191
Y0014651
X0043793Y0014524
Y0017064
Y0019604
Y0022144
X0007793
Y0019604
Y0017064
Y0014524
Y0041984
Y0044524
Y0047064
Y0049604
Y0052144
M30
