%TF.GenerationSoftware,Altium Limited,Altium Designer,23.1.1 (15)*%
G04 Layer_Physical_Order=1*
G04 Layer_Color=255*
%FSLAX45Y45*%
%MOMM*%
%TF.SameCoordinates,57096F0C-A1BA-419E-BD28-F337C00074C1*%
%TF.FilePolarity,Positive*%
%TF.FileFunction,Copper,L1,Top,Signal*%
%TF.Part,CustomerPanel*%
G01*
G75*
%TA.AperFunction,NonConductor*%
%ADD10C,0.25400*%
%TA.AperFunction,ComponentPad*%
%ADD11R,1.37000X1.37000*%
%ADD12C,1.37000*%
G36*
X5429076Y5950729D02*
X5538214Y5936361D01*
X5645686Y5912535D01*
X5750672Y5879433D01*
X5852373Y5837307D01*
X5950015Y5786478D01*
X6042856Y5727331D01*
X6130189Y5660319D01*
X6211349Y5585949D01*
X6285718Y5504789D01*
X6352731Y5417457D01*
X6411877Y5324615D01*
X6462707Y5226973D01*
X6504833Y5125272D01*
X6537935Y5020286D01*
X6561761Y4912815D01*
X6576129Y4803676D01*
X6580931Y4693700D01*
X6576129Y4583724D01*
X6561761Y4474585D01*
X6537935Y4367114D01*
X6504833Y4262128D01*
X6462707Y4160427D01*
X6411877Y4062785D01*
X6352731Y3969944D01*
X6285718Y3882611D01*
X6211349Y3801451D01*
X6130189Y3727081D01*
X6042856Y3660069D01*
X5950015Y3600922D01*
X5852373Y3550093D01*
X5750672Y3507967D01*
X5645686Y3474865D01*
X5538214Y3451039D01*
X5429076Y3436671D01*
X5319100Y3431869D01*
X5209124Y3436671D01*
X5099985Y3451039D01*
X4992514Y3474865D01*
X4887528Y3507967D01*
X4785827Y3550093D01*
X4688184Y3600922D01*
X4595343Y3660069D01*
X4508011Y3727081D01*
X4426851Y3801451D01*
X4352481Y3882611D01*
X4285468Y3969944D01*
X4226322Y4062785D01*
X4175493Y4160427D01*
X4133367Y4262128D01*
X4100265Y4367114D01*
X4076439Y4474585D01*
X4062071Y4583724D01*
X4057269Y4693700D01*
X4062071Y4803676D01*
X4076439Y4912815D01*
X4100265Y5020286D01*
X4133367Y5125272D01*
X4175493Y5226973D01*
X4226322Y5324615D01*
X4285468Y5417457D01*
X4352481Y5504789D01*
X4426851Y5585949D01*
X4508011Y5660319D01*
X4595343Y5727331D01*
X4688184Y5786478D01*
X4785827Y5837307D01*
X4887528Y5879433D01*
X4992514Y5912535D01*
X5099985Y5936361D01*
X5209124Y5950729D01*
X5319100Y5955531D01*
X5429076Y5950729D01*
D02*
G37*
G36*
X1829076D02*
X1938215Y5936361D01*
X2045686Y5912535D01*
X2150672Y5879433D01*
X2252373Y5837307D01*
X2350015Y5786478D01*
X2442856Y5727331D01*
X2530189Y5660319D01*
X2611349Y5585949D01*
X2685719Y5504789D01*
X2752731Y5417457D01*
X2811878Y5324615D01*
X2862707Y5226973D01*
X2904833Y5125272D01*
X2937935Y5020286D01*
X2961761Y4912815D01*
X2976129Y4803676D01*
X2980931Y4693700D01*
X2976129Y4583724D01*
X2961761Y4474585D01*
X2937935Y4367114D01*
X2904833Y4262128D01*
X2862707Y4160427D01*
X2811878Y4062785D01*
X2752731Y3969944D01*
X2685719Y3882611D01*
X2611349Y3801451D01*
X2530189Y3727081D01*
X2442856Y3660069D01*
X2350015Y3600922D01*
X2252373Y3550093D01*
X2150672Y3507967D01*
X2045686Y3474865D01*
X1938215Y3451039D01*
X1829076Y3436671D01*
X1719100Y3431869D01*
X1609124Y3436671D01*
X1499985Y3451039D01*
X1392514Y3474865D01*
X1287528Y3507967D01*
X1185827Y3550093D01*
X1088185Y3600922D01*
X995343Y3660069D01*
X908011Y3727081D01*
X826851Y3801451D01*
X752481Y3882611D01*
X685469Y3969944D01*
X626322Y4062785D01*
X575493Y4160427D01*
X533367Y4262128D01*
X500265Y4367114D01*
X476439Y4474585D01*
X462071Y4583724D01*
X457269Y4693700D01*
X462071Y4803676D01*
X476439Y4912815D01*
X500265Y5020286D01*
X533367Y5125272D01*
X575493Y5226973D01*
X626322Y5324615D01*
X685469Y5417457D01*
X752481Y5504789D01*
X826851Y5585949D01*
X908011Y5660319D01*
X995343Y5727331D01*
X1088185Y5786478D01*
X1185827Y5837307D01*
X1287528Y5879433D01*
X1392514Y5912535D01*
X1499985Y5936361D01*
X1609124Y5950729D01*
X1719100Y5955531D01*
X1829076Y5950729D01*
D02*
G37*
G36*
X5429076Y2950729D02*
X5538214Y2936361D01*
X5645686Y2912535D01*
X5750672Y2879433D01*
X5852373Y2837307D01*
X5950015Y2786478D01*
X6042856Y2727331D01*
X6130189Y2660319D01*
X6211349Y2585949D01*
X6285718Y2504789D01*
X6352731Y2417456D01*
X6411877Y2324615D01*
X6462707Y2226973D01*
X6504833Y2125272D01*
X6537935Y2020286D01*
X6561761Y1912815D01*
X6576129Y1803676D01*
X6580931Y1693700D01*
X6576129Y1583724D01*
X6561761Y1474585D01*
X6537935Y1367114D01*
X6504833Y1262128D01*
X6462707Y1160427D01*
X6411877Y1062785D01*
X6352731Y969943D01*
X6285718Y882611D01*
X6211349Y801451D01*
X6130189Y727081D01*
X6042856Y660069D01*
X5950015Y600922D01*
X5852373Y550093D01*
X5750672Y507967D01*
X5645686Y474865D01*
X5538214Y451039D01*
X5429076Y436671D01*
X5319100Y431869D01*
X5209124Y436671D01*
X5099985Y451039D01*
X4992514Y474865D01*
X4887528Y507967D01*
X4785827Y550093D01*
X4688184Y600922D01*
X4595343Y660069D01*
X4508011Y727081D01*
X4426851Y801451D01*
X4352481Y882611D01*
X4285468Y969943D01*
X4226322Y1062785D01*
X4175493Y1160427D01*
X4133367Y1262128D01*
X4100265Y1367114D01*
X4076439Y1474585D01*
X4062071Y1583724D01*
X4057269Y1693700D01*
X4062071Y1803676D01*
X4076439Y1912815D01*
X4100265Y2020286D01*
X4133367Y2125272D01*
X4175493Y2226973D01*
X4226322Y2324615D01*
X4285468Y2417456D01*
X4352481Y2504789D01*
X4426851Y2585949D01*
X4508011Y2660319D01*
X4595343Y2727331D01*
X4688184Y2786478D01*
X4785827Y2837307D01*
X4887528Y2879433D01*
X4992514Y2912535D01*
X5099985Y2936361D01*
X5209124Y2950729D01*
X5319100Y2955531D01*
X5429076Y2950729D01*
D02*
G37*
G36*
X1829076D02*
X1938215Y2936361D01*
X2045686Y2912535D01*
X2150672Y2879433D01*
X2252373Y2837307D01*
X2350015Y2786478D01*
X2442856Y2727331D01*
X2530189Y2660319D01*
X2611349Y2585949D01*
X2685719Y2504789D01*
X2752731Y2417456D01*
X2811878Y2324615D01*
X2862707Y2226973D01*
X2904833Y2125272D01*
X2937935Y2020286D01*
X2961761Y1912815D01*
X2976129Y1803676D01*
X2980931Y1693700D01*
X2976129Y1583724D01*
X2961761Y1474585D01*
X2937935Y1367114D01*
X2904833Y1262128D01*
X2862707Y1160427D01*
X2811878Y1062785D01*
X2752731Y969943D01*
X2685719Y882611D01*
X2611349Y801451D01*
X2530189Y727081D01*
X2442856Y660069D01*
X2350015Y600922D01*
X2252373Y550093D01*
X2150672Y507967D01*
X2045686Y474865D01*
X1938215Y451039D01*
X1829076Y436671D01*
X1719100Y431869D01*
X1609124Y436671D01*
X1499985Y451039D01*
X1392514Y474865D01*
X1287528Y507967D01*
X1185827Y550093D01*
X1088185Y600922D01*
X995343Y660069D01*
X908011Y727081D01*
X826851Y801451D01*
X752481Y882611D01*
X685469Y969943D01*
X626322Y1062785D01*
X575493Y1160427D01*
X533367Y1262128D01*
X500265Y1367114D01*
X476439Y1474585D01*
X462071Y1583724D01*
X457269Y1693700D01*
X462071Y1803676D01*
X476439Y1912815D01*
X500265Y2020286D01*
X533367Y2125272D01*
X575493Y2226973D01*
X626322Y2324615D01*
X685469Y2417456D01*
X752481Y2504789D01*
X826851Y2585949D01*
X908011Y2660319D01*
X995343Y2727331D01*
X1088185Y2786478D01*
X1185827Y2837307D01*
X1287528Y2879433D01*
X1392514Y2912535D01*
X1499985Y2936361D01*
X1609124Y2950729D01*
X1719100Y2955531D01*
X1829076Y2950729D01*
D02*
G37*
%LPC*%
G36*
X6245862Y5321000D02*
X6221138D01*
X6197256Y5314601D01*
X6175844Y5302239D01*
X6158361Y5284756D01*
X6145999Y5263344D01*
X6139600Y5239462D01*
Y5214738D01*
X6145999Y5190856D01*
X6158361Y5169444D01*
X6175844Y5151961D01*
X6197256Y5139599D01*
X6221138Y5133200D01*
X6245862D01*
X6269744Y5139599D01*
X6291156Y5151961D01*
X6308639Y5169444D01*
X6321001Y5190856D01*
X6327400Y5214738D01*
Y5239462D01*
X6321001Y5263344D01*
X6308639Y5284756D01*
X6291156Y5302239D01*
X6269744Y5314601D01*
X6245862Y5321000D01*
D02*
G37*
G36*
X4473200Y5308300D02*
X4285400D01*
Y5120500D01*
X4473200D01*
Y5308300D01*
D02*
G37*
G36*
X6245862Y5067000D02*
X6221138D01*
X6197256Y5060601D01*
X6175844Y5048239D01*
X6158361Y5030756D01*
X6145999Y5009344D01*
X6139600Y4985462D01*
Y4960738D01*
X6145999Y4936856D01*
X6158361Y4915444D01*
X6175844Y4897961D01*
X6197256Y4885599D01*
X6221138Y4879200D01*
X6245862D01*
X6269744Y4885599D01*
X6291156Y4897961D01*
X6308639Y4915444D01*
X6321001Y4936856D01*
X6327400Y4960738D01*
Y4985462D01*
X6321001Y5009344D01*
X6308639Y5030756D01*
X6291156Y5048239D01*
X6269744Y5060601D01*
X6245862Y5067000D01*
D02*
G37*
G36*
X4391662Y5054300D02*
X4366938D01*
X4343056Y5047901D01*
X4321644Y5035539D01*
X4304161Y5018056D01*
X4291799Y4996644D01*
X4285400Y4972762D01*
Y4948038D01*
X4291799Y4924156D01*
X4304161Y4902744D01*
X4321644Y4885261D01*
X4343056Y4872899D01*
X4366938Y4866500D01*
X4391662D01*
X4415544Y4872899D01*
X4436956Y4885261D01*
X4454439Y4902744D01*
X4466801Y4924156D01*
X4473200Y4948038D01*
Y4972762D01*
X4466801Y4996644D01*
X4454439Y5018056D01*
X4436956Y5035539D01*
X4415544Y5047901D01*
X4391662Y5054300D01*
D02*
G37*
G36*
X6245862Y4813000D02*
X6221138D01*
X6197256Y4806601D01*
X6175844Y4794239D01*
X6158361Y4776756D01*
X6145999Y4755344D01*
X6139600Y4731462D01*
Y4706738D01*
X6145999Y4682856D01*
X6158361Y4661444D01*
X6175844Y4643961D01*
X6197256Y4631599D01*
X6221138Y4625200D01*
X6245862D01*
X6269744Y4631599D01*
X6291156Y4643961D01*
X6308639Y4661444D01*
X6321001Y4682856D01*
X6327400Y4706738D01*
Y4731462D01*
X6321001Y4755344D01*
X6308639Y4776756D01*
X6291156Y4794239D01*
X6269744Y4806601D01*
X6245862Y4813000D01*
D02*
G37*
G36*
X4391662Y4800300D02*
X4366938D01*
X4343056Y4793901D01*
X4321644Y4781539D01*
X4304161Y4764056D01*
X4291799Y4742644D01*
X4285400Y4718762D01*
Y4694038D01*
X4291799Y4670156D01*
X4304161Y4648744D01*
X4321644Y4631261D01*
X4343056Y4618899D01*
X4366938Y4612500D01*
X4391662D01*
X4415544Y4618899D01*
X4436956Y4631261D01*
X4454439Y4648744D01*
X4466801Y4670156D01*
X4473200Y4694038D01*
Y4718762D01*
X4466801Y4742644D01*
X4454439Y4764056D01*
X4436956Y4781539D01*
X4415544Y4793901D01*
X4391662Y4800300D01*
D02*
G37*
G36*
X6245862Y4559000D02*
X6221138D01*
X6197256Y4552601D01*
X6175844Y4540239D01*
X6158361Y4522756D01*
X6145999Y4501344D01*
X6139600Y4477462D01*
Y4452738D01*
X6145999Y4428856D01*
X6158361Y4407444D01*
X6175844Y4389961D01*
X6197256Y4377599D01*
X6221138Y4371200D01*
X6245862D01*
X6269744Y4377599D01*
X6291156Y4389961D01*
X6308639Y4407444D01*
X6321001Y4428856D01*
X6327400Y4452738D01*
Y4477462D01*
X6321001Y4501344D01*
X6308639Y4522756D01*
X6291156Y4540239D01*
X6269744Y4552601D01*
X6245862Y4559000D01*
D02*
G37*
G36*
X4391662Y4546300D02*
X4366938D01*
X4343056Y4539901D01*
X4321644Y4527539D01*
X4304161Y4510056D01*
X4291799Y4488644D01*
X4285400Y4464762D01*
Y4440038D01*
X4291799Y4416156D01*
X4304161Y4394744D01*
X4321644Y4377261D01*
X4343056Y4364899D01*
X4366938Y4358500D01*
X4391662D01*
X4415544Y4364899D01*
X4436956Y4377261D01*
X4454439Y4394744D01*
X4466801Y4416156D01*
X4473200Y4440038D01*
Y4464762D01*
X4466801Y4488644D01*
X4454439Y4510056D01*
X4436956Y4527539D01*
X4415544Y4539901D01*
X4391662Y4546300D01*
D02*
G37*
G36*
X6327400Y4305000D02*
X6139600D01*
Y4117200D01*
X6327400D01*
Y4305000D01*
D02*
G37*
G36*
X4391662Y4292300D02*
X4366938D01*
X4343056Y4285901D01*
X4321644Y4273539D01*
X4304161Y4256056D01*
X4291799Y4234644D01*
X4285400Y4210762D01*
Y4186038D01*
X4291799Y4162156D01*
X4304161Y4140744D01*
X4321644Y4123261D01*
X4343056Y4110899D01*
X4366938Y4104500D01*
X4391662D01*
X4415544Y4110899D01*
X4436956Y4123261D01*
X4454439Y4140744D01*
X4466801Y4162156D01*
X4473200Y4186038D01*
Y4210762D01*
X4466801Y4234644D01*
X4454439Y4256056D01*
X4436956Y4273539D01*
X4415544Y4285901D01*
X4391662Y4292300D01*
D02*
G37*
G36*
X2645862Y5321000D02*
X2621138D01*
X2597256Y5314601D01*
X2575844Y5302239D01*
X2558361Y5284756D01*
X2545999Y5263344D01*
X2539600Y5239462D01*
Y5214738D01*
X2545999Y5190856D01*
X2558361Y5169444D01*
X2575844Y5151961D01*
X2597256Y5139599D01*
X2621138Y5133200D01*
X2645862D01*
X2669744Y5139599D01*
X2691156Y5151961D01*
X2708639Y5169444D01*
X2721001Y5190856D01*
X2727400Y5214738D01*
Y5239462D01*
X2721001Y5263344D01*
X2708639Y5284756D01*
X2691156Y5302239D01*
X2669744Y5314601D01*
X2645862Y5321000D01*
D02*
G37*
G36*
X873200Y5308300D02*
X685400D01*
Y5120500D01*
X873200D01*
Y5308300D01*
D02*
G37*
G36*
X2645862Y5067000D02*
X2621138D01*
X2597256Y5060601D01*
X2575844Y5048239D01*
X2558361Y5030756D01*
X2545999Y5009344D01*
X2539600Y4985462D01*
Y4960738D01*
X2545999Y4936856D01*
X2558361Y4915444D01*
X2575844Y4897961D01*
X2597256Y4885599D01*
X2621138Y4879200D01*
X2645862D01*
X2669744Y4885599D01*
X2691156Y4897961D01*
X2708639Y4915444D01*
X2721001Y4936856D01*
X2727400Y4960738D01*
Y4985462D01*
X2721001Y5009344D01*
X2708639Y5030756D01*
X2691156Y5048239D01*
X2669744Y5060601D01*
X2645862Y5067000D01*
D02*
G37*
G36*
X791662Y5054300D02*
X766938D01*
X743056Y5047901D01*
X721644Y5035539D01*
X704161Y5018056D01*
X691799Y4996644D01*
X685400Y4972762D01*
Y4948038D01*
X691799Y4924156D01*
X704161Y4902744D01*
X721644Y4885261D01*
X743056Y4872899D01*
X766938Y4866500D01*
X791662D01*
X815544Y4872899D01*
X836956Y4885261D01*
X854439Y4902744D01*
X866801Y4924156D01*
X873200Y4948038D01*
Y4972762D01*
X866801Y4996644D01*
X854439Y5018056D01*
X836956Y5035539D01*
X815544Y5047901D01*
X791662Y5054300D01*
D02*
G37*
G36*
X2645862Y4813000D02*
X2621138D01*
X2597256Y4806601D01*
X2575844Y4794239D01*
X2558361Y4776756D01*
X2545999Y4755344D01*
X2539600Y4731462D01*
Y4706738D01*
X2545999Y4682856D01*
X2558361Y4661444D01*
X2575844Y4643961D01*
X2597256Y4631599D01*
X2621138Y4625200D01*
X2645862D01*
X2669744Y4631599D01*
X2691156Y4643961D01*
X2708639Y4661444D01*
X2721001Y4682856D01*
X2727400Y4706738D01*
Y4731462D01*
X2721001Y4755344D01*
X2708639Y4776756D01*
X2691156Y4794239D01*
X2669744Y4806601D01*
X2645862Y4813000D01*
D02*
G37*
G36*
X791662Y4800300D02*
X766938D01*
X743056Y4793901D01*
X721644Y4781539D01*
X704161Y4764056D01*
X691799Y4742644D01*
X685400Y4718762D01*
Y4694038D01*
X691799Y4670156D01*
X704161Y4648744D01*
X721644Y4631261D01*
X743056Y4618899D01*
X766938Y4612500D01*
X791662D01*
X815544Y4618899D01*
X836956Y4631261D01*
X854439Y4648744D01*
X866801Y4670156D01*
X873200Y4694038D01*
Y4718762D01*
X866801Y4742644D01*
X854439Y4764056D01*
X836956Y4781539D01*
X815544Y4793901D01*
X791662Y4800300D01*
D02*
G37*
G36*
X2645862Y4559000D02*
X2621138D01*
X2597256Y4552601D01*
X2575844Y4540239D01*
X2558361Y4522756D01*
X2545999Y4501344D01*
X2539600Y4477462D01*
Y4452738D01*
X2545999Y4428856D01*
X2558361Y4407444D01*
X2575844Y4389961D01*
X2597256Y4377599D01*
X2621138Y4371200D01*
X2645862D01*
X2669744Y4377599D01*
X2691156Y4389961D01*
X2708639Y4407444D01*
X2721001Y4428856D01*
X2727400Y4452738D01*
Y4477462D01*
X2721001Y4501344D01*
X2708639Y4522756D01*
X2691156Y4540239D01*
X2669744Y4552601D01*
X2645862Y4559000D01*
D02*
G37*
G36*
X791662Y4546300D02*
X766938D01*
X743056Y4539901D01*
X721644Y4527539D01*
X704161Y4510056D01*
X691799Y4488644D01*
X685400Y4464762D01*
Y4440038D01*
X691799Y4416156D01*
X704161Y4394744D01*
X721644Y4377261D01*
X743056Y4364899D01*
X766938Y4358500D01*
X791662D01*
X815544Y4364899D01*
X836956Y4377261D01*
X854439Y4394744D01*
X866801Y4416156D01*
X873200Y4440038D01*
Y4464762D01*
X866801Y4488644D01*
X854439Y4510056D01*
X836956Y4527539D01*
X815544Y4539901D01*
X791662Y4546300D01*
D02*
G37*
G36*
X2727400Y4305000D02*
X2539600D01*
Y4117200D01*
X2727400D01*
Y4305000D01*
D02*
G37*
G36*
X791662Y4292300D02*
X766938D01*
X743056Y4285901D01*
X721644Y4273539D01*
X704161Y4256056D01*
X691799Y4234644D01*
X685400Y4210762D01*
Y4186038D01*
X691799Y4162156D01*
X704161Y4140744D01*
X721644Y4123261D01*
X743056Y4110899D01*
X766938Y4104500D01*
X791662D01*
X815544Y4110899D01*
X836956Y4123261D01*
X854439Y4140744D01*
X866801Y4162156D01*
X873200Y4186038D01*
Y4210762D01*
X866801Y4234644D01*
X854439Y4256056D01*
X836956Y4273539D01*
X815544Y4285901D01*
X791662Y4292300D01*
D02*
G37*
G36*
X6245862Y2321000D02*
X6221138D01*
X6197256Y2314601D01*
X6175844Y2302239D01*
X6158361Y2284756D01*
X6145999Y2263344D01*
X6139600Y2239462D01*
Y2214738D01*
X6145999Y2190856D01*
X6158361Y2169444D01*
X6175844Y2151961D01*
X6197256Y2139599D01*
X6221138Y2133200D01*
X6245862D01*
X6269744Y2139599D01*
X6291156Y2151961D01*
X6308639Y2169444D01*
X6321001Y2190856D01*
X6327400Y2214738D01*
Y2239462D01*
X6321001Y2263344D01*
X6308639Y2284756D01*
X6291156Y2302239D01*
X6269744Y2314601D01*
X6245862Y2321000D01*
D02*
G37*
G36*
X4473200Y2308300D02*
X4285400D01*
Y2120500D01*
X4473200D01*
Y2308300D01*
D02*
G37*
G36*
X6245862Y2067000D02*
X6221138D01*
X6197256Y2060601D01*
X6175844Y2048239D01*
X6158361Y2030756D01*
X6145999Y2009344D01*
X6139600Y1985462D01*
Y1960738D01*
X6145999Y1936856D01*
X6158361Y1915444D01*
X6175844Y1897961D01*
X6197256Y1885599D01*
X6221138Y1879200D01*
X6245862D01*
X6269744Y1885599D01*
X6291156Y1897961D01*
X6308639Y1915444D01*
X6321001Y1936856D01*
X6327400Y1960738D01*
Y1985462D01*
X6321001Y2009344D01*
X6308639Y2030756D01*
X6291156Y2048239D01*
X6269744Y2060601D01*
X6245862Y2067000D01*
D02*
G37*
G36*
X4391662Y2054300D02*
X4366938D01*
X4343056Y2047901D01*
X4321644Y2035539D01*
X4304161Y2018056D01*
X4291799Y1996644D01*
X4285400Y1972762D01*
Y1948038D01*
X4291799Y1924156D01*
X4304161Y1902744D01*
X4321644Y1885261D01*
X4343056Y1872899D01*
X4366938Y1866500D01*
X4391662D01*
X4415544Y1872899D01*
X4436956Y1885261D01*
X4454439Y1902744D01*
X4466801Y1924156D01*
X4473200Y1948038D01*
Y1972762D01*
X4466801Y1996644D01*
X4454439Y2018056D01*
X4436956Y2035539D01*
X4415544Y2047901D01*
X4391662Y2054300D01*
D02*
G37*
G36*
X6245862Y1813000D02*
X6221138D01*
X6197256Y1806601D01*
X6175844Y1794239D01*
X6158361Y1776756D01*
X6145999Y1755344D01*
X6139600Y1731462D01*
Y1706738D01*
X6145999Y1682856D01*
X6158361Y1661444D01*
X6175844Y1643961D01*
X6197256Y1631599D01*
X6221138Y1625200D01*
X6245862D01*
X6269744Y1631599D01*
X6291156Y1643961D01*
X6308639Y1661444D01*
X6321001Y1682856D01*
X6327400Y1706738D01*
Y1731462D01*
X6321001Y1755344D01*
X6308639Y1776756D01*
X6291156Y1794239D01*
X6269744Y1806601D01*
X6245862Y1813000D01*
D02*
G37*
G36*
X4391662Y1800300D02*
X4366938D01*
X4343056Y1793901D01*
X4321644Y1781539D01*
X4304161Y1764056D01*
X4291799Y1742644D01*
X4285400Y1718762D01*
Y1694038D01*
X4291799Y1670156D01*
X4304161Y1648744D01*
X4321644Y1631261D01*
X4343056Y1618899D01*
X4366938Y1612500D01*
X4391662D01*
X4415544Y1618899D01*
X4436956Y1631261D01*
X4454439Y1648744D01*
X4466801Y1670156D01*
X4473200Y1694038D01*
Y1718762D01*
X4466801Y1742644D01*
X4454439Y1764056D01*
X4436956Y1781539D01*
X4415544Y1793901D01*
X4391662Y1800300D01*
D02*
G37*
G36*
X6245862Y1559000D02*
X6221138D01*
X6197256Y1552601D01*
X6175844Y1540239D01*
X6158361Y1522756D01*
X6145999Y1501344D01*
X6139600Y1477462D01*
Y1452738D01*
X6145999Y1428856D01*
X6158361Y1407444D01*
X6175844Y1389961D01*
X6197256Y1377599D01*
X6221138Y1371200D01*
X6245862D01*
X6269744Y1377599D01*
X6291156Y1389961D01*
X6308639Y1407444D01*
X6321001Y1428856D01*
X6327400Y1452738D01*
Y1477462D01*
X6321001Y1501344D01*
X6308639Y1522756D01*
X6291156Y1540239D01*
X6269744Y1552601D01*
X6245862Y1559000D01*
D02*
G37*
G36*
X4391662Y1546300D02*
X4366938D01*
X4343056Y1539901D01*
X4321644Y1527539D01*
X4304161Y1510056D01*
X4291799Y1488644D01*
X4285400Y1464762D01*
Y1440038D01*
X4291799Y1416156D01*
X4304161Y1394744D01*
X4321644Y1377261D01*
X4343056Y1364899D01*
X4366938Y1358500D01*
X4391662D01*
X4415544Y1364899D01*
X4436956Y1377261D01*
X4454439Y1394744D01*
X4466801Y1416156D01*
X4473200Y1440038D01*
Y1464762D01*
X4466801Y1488644D01*
X4454439Y1510056D01*
X4436956Y1527539D01*
X4415544Y1539901D01*
X4391662Y1546300D01*
D02*
G37*
G36*
X6327400Y1305000D02*
X6139600D01*
Y1117200D01*
X6327400D01*
Y1305000D01*
D02*
G37*
G36*
X4391662Y1292300D02*
X4366938D01*
X4343056Y1285901D01*
X4321644Y1273539D01*
X4304161Y1256056D01*
X4291799Y1234644D01*
X4285400Y1210762D01*
Y1186038D01*
X4291799Y1162156D01*
X4304161Y1140744D01*
X4321644Y1123261D01*
X4343056Y1110899D01*
X4366938Y1104500D01*
X4391662D01*
X4415544Y1110899D01*
X4436956Y1123261D01*
X4454439Y1140744D01*
X4466801Y1162156D01*
X4473200Y1186038D01*
Y1210762D01*
X4466801Y1234644D01*
X4454439Y1256056D01*
X4436956Y1273539D01*
X4415544Y1285901D01*
X4391662Y1292300D01*
D02*
G37*
G36*
X2645862Y2321000D02*
X2621138D01*
X2597256Y2314601D01*
X2575844Y2302239D01*
X2558361Y2284756D01*
X2545999Y2263344D01*
X2539600Y2239462D01*
Y2214738D01*
X2545999Y2190856D01*
X2558361Y2169444D01*
X2575844Y2151961D01*
X2597256Y2139599D01*
X2621138Y2133200D01*
X2645862D01*
X2669744Y2139599D01*
X2691156Y2151961D01*
X2708639Y2169444D01*
X2721001Y2190856D01*
X2727400Y2214738D01*
Y2239462D01*
X2721001Y2263344D01*
X2708639Y2284756D01*
X2691156Y2302239D01*
X2669744Y2314601D01*
X2645862Y2321000D01*
D02*
G37*
G36*
X873200Y2308300D02*
X685400D01*
Y2120500D01*
X873200D01*
Y2308300D01*
D02*
G37*
G36*
X2645862Y2067000D02*
X2621138D01*
X2597256Y2060601D01*
X2575844Y2048239D01*
X2558361Y2030756D01*
X2545999Y2009344D01*
X2539600Y1985462D01*
Y1960738D01*
X2545999Y1936856D01*
X2558361Y1915444D01*
X2575844Y1897961D01*
X2597256Y1885599D01*
X2621138Y1879200D01*
X2645862D01*
X2669744Y1885599D01*
X2691156Y1897961D01*
X2708639Y1915444D01*
X2721001Y1936856D01*
X2727400Y1960738D01*
Y1985462D01*
X2721001Y2009344D01*
X2708639Y2030756D01*
X2691156Y2048239D01*
X2669744Y2060601D01*
X2645862Y2067000D01*
D02*
G37*
G36*
X791662Y2054300D02*
X766938D01*
X743056Y2047901D01*
X721644Y2035539D01*
X704161Y2018056D01*
X691799Y1996644D01*
X685400Y1972762D01*
Y1948038D01*
X691799Y1924156D01*
X704161Y1902744D01*
X721644Y1885261D01*
X743056Y1872899D01*
X766938Y1866500D01*
X791662D01*
X815544Y1872899D01*
X836956Y1885261D01*
X854439Y1902744D01*
X866801Y1924156D01*
X873200Y1948038D01*
Y1972762D01*
X866801Y1996644D01*
X854439Y2018056D01*
X836956Y2035539D01*
X815544Y2047901D01*
X791662Y2054300D01*
D02*
G37*
G36*
X2645862Y1813000D02*
X2621138D01*
X2597256Y1806601D01*
X2575844Y1794239D01*
X2558361Y1776756D01*
X2545999Y1755344D01*
X2539600Y1731462D01*
Y1706738D01*
X2545999Y1682856D01*
X2558361Y1661444D01*
X2575844Y1643961D01*
X2597256Y1631599D01*
X2621138Y1625200D01*
X2645862D01*
X2669744Y1631599D01*
X2691156Y1643961D01*
X2708639Y1661444D01*
X2721001Y1682856D01*
X2727400Y1706738D01*
Y1731462D01*
X2721001Y1755344D01*
X2708639Y1776756D01*
X2691156Y1794239D01*
X2669744Y1806601D01*
X2645862Y1813000D01*
D02*
G37*
G36*
X791662Y1800300D02*
X766938D01*
X743056Y1793901D01*
X721644Y1781539D01*
X704161Y1764056D01*
X691799Y1742644D01*
X685400Y1718762D01*
Y1694038D01*
X691799Y1670156D01*
X704161Y1648744D01*
X721644Y1631261D01*
X743056Y1618899D01*
X766938Y1612500D01*
X791662D01*
X815544Y1618899D01*
X836956Y1631261D01*
X854439Y1648744D01*
X866801Y1670156D01*
X873200Y1694038D01*
Y1718762D01*
X866801Y1742644D01*
X854439Y1764056D01*
X836956Y1781539D01*
X815544Y1793901D01*
X791662Y1800300D01*
D02*
G37*
G36*
X2645862Y1559000D02*
X2621138D01*
X2597256Y1552601D01*
X2575844Y1540239D01*
X2558361Y1522756D01*
X2545999Y1501344D01*
X2539600Y1477462D01*
Y1452738D01*
X2545999Y1428856D01*
X2558361Y1407444D01*
X2575844Y1389961D01*
X2597256Y1377599D01*
X2621138Y1371200D01*
X2645862D01*
X2669744Y1377599D01*
X2691156Y1389961D01*
X2708639Y1407444D01*
X2721001Y1428856D01*
X2727400Y1452738D01*
Y1477462D01*
X2721001Y1501344D01*
X2708639Y1522756D01*
X2691156Y1540239D01*
X2669744Y1552601D01*
X2645862Y1559000D01*
D02*
G37*
G36*
X791662Y1546300D02*
X766938D01*
X743056Y1539901D01*
X721644Y1527539D01*
X704161Y1510056D01*
X691799Y1488644D01*
X685400Y1464762D01*
Y1440038D01*
X691799Y1416156D01*
X704161Y1394744D01*
X721644Y1377261D01*
X743056Y1364899D01*
X766938Y1358500D01*
X791662D01*
X815544Y1364899D01*
X836956Y1377261D01*
X854439Y1394744D01*
X866801Y1416156D01*
X873200Y1440038D01*
Y1464762D01*
X866801Y1488644D01*
X854439Y1510056D01*
X836956Y1527539D01*
X815544Y1539901D01*
X791662Y1546300D01*
D02*
G37*
G36*
X2727400Y1305000D02*
X2539600D01*
Y1117200D01*
X2727400D01*
Y1305000D01*
D02*
G37*
G36*
X791662Y1292300D02*
X766938D01*
X743056Y1285901D01*
X721644Y1273539D01*
X704161Y1256056D01*
X691799Y1234644D01*
X685400Y1210762D01*
Y1186038D01*
X691799Y1162156D01*
X704161Y1140744D01*
X721644Y1123261D01*
X743056Y1110899D01*
X766938Y1104500D01*
X791662D01*
X815544Y1110899D01*
X836956Y1123261D01*
X854439Y1140744D01*
X866801Y1162156D01*
X873200Y1186038D01*
Y1210762D01*
X866801Y1234644D01*
X854439Y1256056D01*
X836956Y1273539D01*
X815544Y1285901D01*
X791662Y1292300D01*
D02*
G37*
%LPD*%
D10*
X0Y0D02*
X7302500D01*
X0Y6578600D02*
X7302500D01*
Y0D02*
Y6578600D01*
X0Y0D02*
Y6578600D01*
X3019100Y1693700D02*
G03*
X3019100Y1693700I-1300000J0D01*
G01*
X6619100D02*
G03*
X6619100Y1693700I-1300000J0D01*
G01*
X3019100Y4693700D02*
G03*
X3019100Y4693700I-1300000J0D01*
G01*
X6619100D02*
G03*
X6619100Y4693700I-1300000J0D01*
G01*
D11*
X2633500Y1211100D02*
D03*
X779300Y2214400D02*
D03*
X6233500Y1211100D02*
D03*
X4379300Y2214400D02*
D03*
X2633500Y4211100D02*
D03*
X779300Y5214400D02*
D03*
X6233500Y4211100D02*
D03*
X4379300Y5214400D02*
D03*
D12*
X2633500Y1465100D02*
D03*
Y1719100D02*
D03*
Y1973100D02*
D03*
Y2227100D02*
D03*
X779300Y1960400D02*
D03*
Y1706400D02*
D03*
Y1452400D02*
D03*
Y1198400D02*
D03*
X6233500Y1465100D02*
D03*
Y1719100D02*
D03*
Y1973100D02*
D03*
Y2227100D02*
D03*
X4379300Y1960400D02*
D03*
Y1706400D02*
D03*
Y1452400D02*
D03*
Y1198400D02*
D03*
X2633500Y4465100D02*
D03*
Y4719100D02*
D03*
Y4973100D02*
D03*
Y5227100D02*
D03*
X779300Y4960400D02*
D03*
Y4706400D02*
D03*
Y4452400D02*
D03*
Y4198400D02*
D03*
X6233500Y4465100D02*
D03*
Y4719100D02*
D03*
Y4973100D02*
D03*
Y5227100D02*
D03*
X4379300Y4960400D02*
D03*
Y4706400D02*
D03*
Y4452400D02*
D03*
Y4198400D02*
D03*
%TF.MD5,5cb55ed2313da1d442a50582f0e483ae*%
M02*
